<svg width="125" height="42" viewBox="0 0 125 42" fill="none" xmlns="http://www.w3.org/2000/svg">
<foreignObject x="0" y="0" width="0" height="0"><div xmlns="http://www.w3.org/1999/xhtml" style="backdrop-filter:blur(2.93px);clip-path:url(#bgblur_0_4879_11762_clip_path);height:100%;width:100%"></div></foreignObject><g data-figma-bg-blur-radius="5.86425">
<rect width="124.222" height="41.2218" rx="6" fill="#101010"/>
<path d="M24.7602 30.692C23.567 31.8487 22.2642 31.6661 21.0101 31.1182C19.683 30.5581 18.4654 30.5338 17.0652 31.1182C15.3119 31.8731 14.3865 31.6539 13.3394 30.692C7.39763 24.5676 8.27428 15.241 15.0196 14.9001C16.6634 14.9853 17.8079 15.8011 18.7698 15.8742C20.2065 15.5819 21.5824 14.7418 23.1165 14.8514C24.9551 14.9975 26.3431 15.728 27.2563 17.043C23.4574 19.3199 24.3584 24.3241 27.8407 25.7243C27.1467 27.5507 26.2457 29.3649 24.7481 30.7042L24.7602 30.692ZM18.648 14.827C18.4654 12.1118 20.6692 9.87151 23.2018 9.65234C23.5548 12.7937 20.3526 15.1314 18.648 14.827Z" fill="white"/>
<path d="M39.4548 8.77877C39.9868 8.77877 40.4441 8.87911 40.8268 9.07977C41.2141 9.28044 41.5128 9.56511 41.7228 9.93377C41.9375 10.3024 42.0448 10.7411 42.0448 11.2498C42.0448 11.7538 41.9375 12.1878 41.7228 12.5518C41.5128 12.9111 41.2141 13.1888 40.8268 13.3848C40.4441 13.5808 39.9868 13.6788 39.4548 13.6788H37.7748V8.77877H39.4548ZM39.4548 13.0908C40.0708 13.0908 40.5375 12.9298 40.8548 12.6078C41.1768 12.2811 41.3378 11.8284 41.3378 11.2498C41.3378 10.6618 41.1768 10.2021 40.8548 9.87077C40.5375 9.53477 40.0708 9.36677 39.4548 9.36677H38.4748V13.0908H39.4548ZM45.0792 13.7278C44.7339 13.7278 44.4096 13.6671 44.1062 13.5458C43.8076 13.4244 43.5462 13.2541 43.3222 13.0348C43.0982 12.8108 42.9232 12.5471 42.7972 12.2438C42.6712 11.9358 42.6082 11.5974 42.6082 11.2288C42.6082 10.8601 42.6712 10.5241 42.7972 10.2208C42.9232 9.91744 43.0982 9.65377 43.3222 9.42977C43.5462 9.20577 43.8076 9.03311 44.1062 8.91177C44.4096 8.79044 44.7339 8.72977 45.0792 8.72977C45.4199 8.72977 45.7396 8.79044 46.0382 8.91177C46.3369 9.03311 46.5982 9.20577 46.8222 9.42977C47.0462 9.65377 47.2212 9.91744 47.3472 10.2208C47.4732 10.5241 47.5362 10.8601 47.5362 11.2288C47.5362 11.5974 47.4732 11.9358 47.3472 12.2438C47.2212 12.5471 47.0462 12.8108 46.8222 13.0348C46.5982 13.2541 46.3369 13.4244 46.0382 13.5458C45.7396 13.6671 45.4199 13.7278 45.0792 13.7278ZM45.0792 13.1258C45.4106 13.1258 45.7069 13.0488 45.9682 12.8948C46.2342 12.7408 46.4442 12.5214 46.5982 12.2368C46.7522 11.9521 46.8292 11.6161 46.8292 11.2288C46.8292 10.8368 46.7522 10.5008 46.5982 10.2208C46.4442 9.93611 46.2342 9.71677 45.9682 9.56277C45.7069 9.40877 45.4106 9.33177 45.0792 9.33177C44.7432 9.33177 44.4422 9.40877 44.1762 9.56277C43.9102 9.71677 43.7002 9.93611 43.5462 10.2208C43.3969 10.5008 43.3222 10.8368 43.3222 11.2288C43.3222 11.6161 43.3969 11.9521 43.5462 12.2368C43.7002 12.5214 43.9102 12.7408 44.1762 12.8948C44.4422 13.0488 44.7432 13.1258 45.0792 13.1258ZM50.1697 13.6788H49.3927L47.9927 8.77877H48.7417L49.7847 12.8668L50.9047 8.77877H51.6817L52.7947 12.8528L53.8447 8.77877H54.5797L53.1867 13.6788H52.4027L51.2897 9.82177L50.1697 13.6788ZM59.1797 8.77877V13.6788H58.4657L56.0227 9.88477V13.6788H55.3227V8.77877H56.0367L58.4797 12.5588V8.77877H59.1797ZM60.9855 8.77877V13.0908H63.2255V13.6788H60.2855V8.77877H60.9855ZM66.1613 13.7278C65.8159 13.7278 65.4916 13.6671 65.1883 13.5458C64.8896 13.4244 64.6283 13.2541 64.4043 13.0348C64.1803 12.8108 64.0053 12.5471 63.8793 12.2438C63.7533 11.9358 63.6903 11.5974 63.6903 11.2288C63.6903 10.8601 63.7533 10.5241 63.8793 10.2208C64.0053 9.91744 64.1803 9.65377 64.4043 9.42977C64.6283 9.20577 64.8896 9.03311 65.1883 8.91177C65.4916 8.79044 65.8159 8.72977 66.1613 8.72977C66.5019 8.72977 66.8216 8.79044 67.1203 8.91177C67.4189 9.03311 67.6803 9.20577 67.9043 9.42977C68.1283 9.65377 68.3033 9.91744 68.4293 10.2208C68.5553 10.5241 68.6183 10.8601 68.6183 11.2288C68.6183 11.5974 68.5553 11.9358 68.4293 12.2438C68.3033 12.5471 68.1283 12.8108 67.9043 13.0348C67.6803 13.2541 67.4189 13.4244 67.1203 13.5458C66.8216 13.6671 66.5019 13.7278 66.1613 13.7278ZM66.1613 13.1258C66.4926 13.1258 66.7889 13.0488 67.0503 12.8948C67.3163 12.7408 67.5263 12.5214 67.6803 12.2368C67.8343 11.9521 67.9113 11.6161 67.9113 11.2288C67.9113 10.8368 67.8343 10.5008 67.6803 10.2208C67.5263 9.93611 67.3163 9.71677 67.0503 9.56277C66.7889 9.40877 66.4926 9.33177 66.1613 9.33177C65.8253 9.33177 65.5243 9.40877 65.2583 9.56277C64.9923 9.71677 64.7823 9.93611 64.6283 10.2208C64.4789 10.5008 64.4043 10.8368 64.4043 11.2288C64.4043 11.6161 64.4789 11.9521 64.6283 12.2368C64.7823 12.5214 64.9923 12.7408 65.2583 12.8948C65.5243 13.0488 65.8253 13.1258 66.1613 13.1258ZM71.4477 9.36677H71.2027L69.6627 13.6788H68.9487L70.7127 8.77877H71.9237L73.6877 13.6788H72.9737L71.4477 9.36677ZM69.8517 11.8448H72.7077V12.4328H69.8517V11.8448ZM75.9724 8.77877C76.5044 8.77877 76.9617 8.87911 77.3444 9.07977C77.7317 9.28044 78.0304 9.56511 78.2404 9.93377C78.455 10.3024 78.5624 10.7411 78.5624 11.2498C78.5624 11.7538 78.455 12.1878 78.2404 12.5518C78.0304 12.9111 77.7317 13.1888 77.3444 13.3848C76.9617 13.5808 76.5044 13.6788 75.9724 13.6788H74.2924V8.77877H75.9724ZM75.9724 13.0908C76.5884 13.0908 77.055 12.9298 77.3724 12.6078C77.6944 12.2811 77.8554 11.8284 77.8554 11.2498C77.8554 10.6618 77.6944 10.2021 77.3724 9.87077C77.055 9.53477 76.5884 9.36677 75.9724 9.36677H74.9924V13.0908H75.9724ZM83.5587 13.7278C83.2134 13.7278 82.8891 13.6671 82.5857 13.5458C82.2871 13.4244 82.0257 13.2541 81.8017 13.0348C81.5777 12.8108 81.4027 12.5471 81.2767 12.2438C81.1507 11.9358 81.0877 11.5974 81.0877 11.2288C81.0877 10.8601 81.1507 10.5241 81.2767 10.2208C81.4027 9.91744 81.5777 9.65377 81.8017 9.42977C82.0257 9.20577 82.2871 9.03311 82.5857 8.91177C82.8891 8.79044 83.2134 8.72977 83.5587 8.72977C83.8994 8.72977 84.2191 8.79044 84.5177 8.91177C84.8164 9.03311 85.0777 9.20577 85.3017 9.42977C85.5257 9.65377 85.7007 9.91744 85.8267 10.2208C85.9527 10.5241 86.0157 10.8601 86.0157 11.2288C86.0157 11.5974 85.9527 11.9358 85.8267 12.2438C85.7007 12.5471 85.5257 12.8108 85.3017 13.0348C85.0777 13.2541 84.8164 13.4244 84.5177 13.5458C84.2191 13.6671 83.8994 13.7278 83.5587 13.7278ZM83.5587 13.1258C83.8901 13.1258 84.1864 13.0488 84.4477 12.8948C84.7137 12.7408 84.9237 12.5214 85.0777 12.2368C85.2317 11.9521 85.3087 11.6161 85.3087 11.2288C85.3087 10.8368 85.2317 10.5008 85.0777 10.2208C84.9237 9.93611 84.7137 9.71677 84.4477 9.56277C84.1864 9.40877 83.8901 9.33177 83.5587 9.33177C83.2227 9.33177 82.9217 9.40877 82.6557 9.56277C82.3897 9.71677 82.1797 9.93611 82.0257 10.2208C81.8764 10.5008 81.8017 10.8368 81.8017 11.2288C81.8017 11.6161 81.8764 11.9521 82.0257 12.2368C82.1797 12.5214 82.3897 12.7408 82.6557 12.8948C82.9217 13.0488 83.2227 13.1258 83.5587 13.1258ZM90.7002 8.77877V13.6788H89.9862L87.5432 9.88477V13.6788H86.8432V8.77877H87.5572L90.0002 12.5588V8.77877H90.7002ZM93.495 8.77877H97.254V9.36677H95.728V13.6788H95.028V9.36677H93.495V8.77877ZM98.0814 8.77877H98.7814V10.8998H101.245V8.77877H101.938V13.6788H101.245V11.4878H98.7814V13.6788H98.0814V8.77877ZM106.327 9.36677H103.751V10.8998H105.683V11.4878H103.751V13.0908H106.327V13.6788H103.051V8.77877H106.327V9.36677Z" fill="white"/>
<path d="M43.7918 21.455H43.1618L39.2018 32.543H37.3658L41.9018 19.943H45.0158L49.5518 32.543H47.7158L43.7918 21.455ZM39.6878 27.827H47.0318V29.339H39.6878V27.827ZM52.1327 31.013L52.3127 30.959V36.143H50.6207V23.543H52.1687L52.2947 24.893C52.5827 24.485 52.9787 24.137 53.4827 23.849C53.9987 23.561 54.6227 23.417 55.3547 23.417C56.1467 23.417 56.8487 23.609 57.4607 23.993C58.0727 24.377 58.5527 24.917 58.9007 25.613C59.2607 26.297 59.4407 27.107 59.4407 28.043C59.4407 28.967 59.2667 29.777 58.9187 30.473C58.5827 31.169 58.1087 31.709 57.4967 32.093C56.8847 32.477 56.1707 32.669 55.3547 32.669C54.5747 32.669 53.9087 32.513 53.3567 32.201C52.8167 31.877 52.4087 31.481 52.1327 31.013ZM57.6047 28.043C57.6047 27.119 57.3587 26.375 56.8667 25.811C56.3867 25.247 55.7567 24.965 54.9767 24.965C54.4727 24.965 54.0227 25.085 53.6267 25.325C53.2307 25.565 52.9127 25.913 52.6727 26.369C52.4327 26.825 52.3127 27.383 52.3127 28.043C52.3127 28.691 52.4327 29.243 52.6727 29.699C52.9127 30.155 53.2307 30.509 53.6267 30.761C54.0227 31.001 54.4727 31.121 54.9767 31.121C55.7567 31.121 56.3867 30.839 56.8667 30.275C57.3587 29.711 57.6047 28.967 57.6047 28.043ZM62.636 31.013L62.816 30.959V36.143H61.124V23.543H62.672L62.798 24.893C63.086 24.485 63.482 24.137 63.986 23.849C64.502 23.561 65.126 23.417 65.858 23.417C66.65 23.417 67.352 23.609 67.964 23.993C68.576 24.377 69.056 24.917 69.404 25.613C69.764 26.297 69.944 27.107 69.944 28.043C69.944 28.967 69.77 29.777 69.422 30.473C69.086 31.169 68.612 31.709 68 32.093C67.388 32.477 66.674 32.669 65.858 32.669C65.078 32.669 64.412 32.513 63.86 32.201C63.32 31.877 62.912 31.481 62.636 31.013ZM68.108 28.043C68.108 27.119 67.862 26.375 67.37 25.811C66.89 25.247 66.26 24.965 65.48 24.965C64.976 24.965 64.526 25.085 64.13 25.325C63.734 25.565 63.416 25.913 63.176 26.369C62.936 26.825 62.816 27.383 62.816 28.043C62.816 28.691 62.936 29.243 63.176 29.699C63.416 30.155 63.734 30.509 64.13 30.761C64.526 31.001 64.976 31.121 65.48 31.121C66.26 31.121 66.89 30.839 67.37 30.275C67.862 29.711 68.108 28.967 68.108 28.043ZM77.5182 29.213C77.5902 29.549 77.7342 29.861 77.9502 30.149C78.1782 30.437 78.4842 30.671 78.8682 30.851C79.2522 31.031 79.7262 31.121 80.2902 31.121C81.1302 31.121 81.7482 30.929 82.1442 30.545C82.5522 30.149 82.7562 29.687 82.7562 29.159C82.7562 28.727 82.6302 28.373 82.3782 28.097C82.1382 27.809 81.8022 27.569 81.3702 27.377C80.9502 27.173 80.4642 26.993 79.9122 26.837C79.4322 26.693 78.9582 26.543 78.4902 26.387C78.0342 26.219 77.6202 26.015 77.2482 25.775C76.8762 25.523 76.5822 25.205 76.3662 24.821C76.1502 24.425 76.0422 23.933 76.0422 23.345C76.0422 22.613 76.2162 21.983 76.5642 21.455C76.9122 20.927 77.3982 20.525 78.0222 20.249C78.6582 19.961 79.3902 19.817 80.2182 19.817C80.9142 19.817 81.5382 19.919 82.0902 20.123C82.6422 20.315 83.1042 20.597 83.4762 20.969C83.8602 21.329 84.1422 21.767 84.3222 22.283L82.6842 22.877C82.6122 22.613 82.4622 22.367 82.2342 22.139C82.0062 21.899 81.7182 21.707 81.3702 21.563C81.0222 21.419 80.6322 21.347 80.2002 21.347C79.7562 21.335 79.3542 21.407 78.9942 21.563C78.6462 21.707 78.3642 21.917 78.1482 22.193C77.9442 22.469 77.8422 22.799 77.8422 23.183C77.8422 23.603 77.9622 23.933 78.2022 24.173C78.4422 24.413 78.7602 24.611 79.1562 24.767C79.5642 24.923 80.0082 25.073 80.4882 25.217C80.9922 25.373 81.4842 25.541 81.9642 25.721C82.4442 25.901 82.8762 26.129 83.2602 26.405C83.6562 26.681 83.9742 27.029 84.2142 27.449C84.4542 27.857 84.5742 28.373 84.5742 28.997C84.5742 29.669 84.4182 30.281 84.1062 30.833C83.7942 31.385 83.3202 31.829 82.6842 32.165C82.0602 32.501 81.2742 32.669 80.3262 32.669C79.5462 32.669 78.8442 32.549 78.2202 32.309C77.5962 32.069 77.0802 31.739 76.6722 31.319C76.2762 30.887 76.0122 30.389 75.8802 29.825L77.5182 29.213ZM86.9344 23.543V21.023H88.6444V23.543H90.8944V25.055H88.6444V29.483C88.6444 30.035 88.7524 30.425 88.9684 30.653C89.1964 30.881 89.4784 31.013 89.8144 31.049C90.1624 31.073 90.5224 31.061 90.8944 31.013V32.471C90.4024 32.579 89.9164 32.609 89.4364 32.561C88.9684 32.525 88.5424 32.393 88.1584 32.165C87.7864 31.937 87.4864 31.607 87.2584 31.175C87.0424 30.731 86.9344 30.167 86.9344 29.483V25.055H85.6384V23.543H86.9344ZM96.374 32.669C95.522 32.669 94.754 32.483 94.07 32.111C93.398 31.727 92.87 31.193 92.486 30.509C92.102 29.813 91.91 28.997 91.91 28.061C91.91 27.113 92.108 26.291 92.504 25.595C92.9 24.899 93.44 24.365 94.124 23.993C94.808 23.609 95.576 23.417 96.428 23.417C97.28 23.417 98.048 23.609 98.732 23.993C99.428 24.365 99.974 24.899 100.37 25.595C100.766 26.279 100.964 27.089 100.964 28.025C100.964 28.973 100.76 29.795 100.352 30.491C99.956 31.187 99.41 31.727 98.714 32.111C98.018 32.483 97.238 32.669 96.374 32.669ZM96.356 31.121C96.836 31.121 97.286 31.013 97.706 30.797C98.126 30.569 98.468 30.227 98.732 29.771C99.008 29.315 99.146 28.733 99.146 28.025C99.146 27.329 99.014 26.759 98.75 26.315C98.498 25.859 98.162 25.523 97.742 25.307C97.322 25.079 96.872 24.965 96.392 24.965C95.924 24.965 95.486 25.079 95.078 25.307C94.682 25.523 94.358 25.859 94.106 26.315C93.854 26.771 93.728 27.353 93.728 28.061C93.728 28.757 93.848 29.333 94.088 29.789C94.34 30.233 94.664 30.569 95.06 30.797C95.456 31.013 95.888 31.121 96.356 31.121ZM102.672 23.543H104.22L104.328 24.749C104.58 24.437 104.868 24.179 105.192 23.975C105.528 23.759 105.888 23.609 106.272 23.525C106.668 23.441 107.076 23.447 107.496 23.543V25.145C107.1 25.049 106.716 25.037 106.344 25.109C105.972 25.181 105.636 25.337 105.336 25.577C105.048 25.805 104.814 26.111 104.634 26.495C104.454 26.879 104.364 27.341 104.364 27.881V32.543H102.672V23.543ZM112.757 32.669C111.893 32.669 111.125 32.471 110.453 32.075C109.793 31.667 109.271 31.109 108.887 30.401C108.515 29.693 108.329 28.883 108.329 27.971C108.329 27.095 108.515 26.315 108.887 25.631C109.259 24.947 109.769 24.407 110.417 24.011C111.077 23.615 111.821 23.417 112.649 23.417C113.489 23.417 114.233 23.603 114.881 23.975C115.529 24.335 116.033 24.845 116.393 25.505C116.753 26.153 116.927 26.903 116.915 27.755C116.915 27.899 116.909 28.049 116.897 28.205C116.885 28.349 116.867 28.511 116.843 28.691H110.183C110.219 29.171 110.351 29.597 110.579 29.969C110.819 30.329 111.119 30.611 111.479 30.815C111.851 31.019 112.271 31.121 112.739 31.121C113.339 31.121 113.861 31.007 114.305 30.779C114.749 30.539 115.061 30.221 115.241 29.825L116.717 30.347C116.357 31.079 115.829 31.649 115.133 32.057C114.449 32.465 113.657 32.669 112.757 32.669ZM115.061 27.233C115.061 26.801 114.953 26.411 114.737 26.063C114.521 25.715 114.227 25.445 113.855 25.253C113.495 25.049 113.087 24.947 112.631 24.947C112.223 24.947 111.845 25.049 111.497 25.253C111.161 25.445 110.873 25.715 110.633 26.063C110.405 26.399 110.261 26.789 110.201 27.233H115.061Z" fill="white"/>
</g>
<defs>
<clipPath id="bgblur_0_4879_11762_clip_path" transform="translate(0 0)"><rect width="124.222" height="41.2218" rx="6"/>
</clipPath></defs>
</svg>
