<svg width="350" height="350" viewBox="0 0 350 350" fill="none" xmlns="http://www.w3.org/2000/svg">
<g clip-path="url(#clip0_4879_12443)">
<rect width="350" height="350" rx="8" fill="white"/>
<g opacity="0.06">
<path d="M19 -199V548" stroke="#033F36"/>
<path d="M43 -199V548" stroke="#033F36"/>
<path d="M67 -199V548" stroke="#033F36"/>
<path d="M91 -199V548" stroke="#033F36"/>
<path d="M115 -199V548" stroke="#033F36"/>
<path d="M139 -199V548" stroke="#033F36"/>
<path d="M163 -199V548" stroke="#033F36"/>
<path d="M187 -199V548" stroke="#033F36"/>
<path d="M211 -199V548" stroke="#033F36"/>
<path d="M235 -199V548" stroke="#033F36"/>
<path d="M259 -199V548" stroke="#033F36"/>
<path d="M283 -199V548" stroke="#033F36"/>
<path d="M307 -199V548" stroke="#033F36"/>
<path d="M331 -199V548" stroke="#033F36"/>
<path d="M548.5 46L-198.5 46" stroke="#033F36"/>
<path d="M548.5 99L-198.5 99" stroke="#033F36"/>
<path d="M548.5 152L-198.5 152" stroke="#033F36"/>
<path d="M548.5 205L-198.5 205" stroke="#033F36"/>
<path d="M548.5 258L-198.5 258" stroke="#033F36"/>
<path d="M548.5 311L-198.5 311" stroke="#033F36"/>
</g>
<rect x="70" y="53.5" width="26" height="26" rx="13" fill="#0AB535" fill-opacity="0.1"/>
<mask id="path-23-outside-1_4879_12443" maskUnits="userSpaceOnUse" x="76.3328" y="61.8335" width="13" height="9" fill="black">
<rect fill="white" x="76.3328" y="61.8335" width="13" height="9"/>
<path d="M88.226 63.6851L87.6869 64.2007L81.9916 69.6147L81.476 70.1069L80.9604 69.6147L78.2885 67.0835L77.7494 66.5679L78.7807 65.4897L79.3197 66.0054L81.476 68.021L86.6557 63.0991L87.1947 62.5835L88.226 63.6851Z"/>
</mask>
<path d="M88.226 63.6851L87.6869 64.2007L81.9916 69.6147L81.476 70.1069L80.9604 69.6147L78.2885 67.0835L77.7494 66.5679L78.7807 65.4897L79.3197 66.0054L81.476 68.021L86.6557 63.0991L87.1947 62.5835L88.226 63.6851Z" fill="#0AB535"/>
<path d="M88.226 63.6851L88.5716 64.0464L88.9291 63.7045L88.591 63.3433L88.226 63.6851ZM87.6869 64.2007L88.0314 64.5631L88.0325 64.562L87.6869 64.2007ZM81.9916 69.6147L81.6471 69.2524L81.6464 69.2531L81.9916 69.6147ZM81.476 70.1069L81.1308 70.4686L81.476 70.7982L81.8212 70.4686L81.476 70.1069ZM80.9604 69.6147L81.3056 69.2531L81.3042 69.2518L80.9604 69.6147ZM78.2885 67.0835L77.9429 67.4448L77.9446 67.4465L78.2885 67.0835ZM77.7494 66.5679L77.3881 66.2223L77.0425 66.5836L77.4038 66.9292L77.7494 66.5679ZM78.7807 65.4897L79.1263 65.1284L78.765 64.7828L78.4194 65.1441L78.7807 65.4897ZM79.3197 66.0054L78.9741 66.3667L78.9783 66.3706L79.3197 66.0054ZM81.476 68.021L81.1346 68.3863L81.4788 68.7081L81.8204 68.3835L81.476 68.021ZM86.6557 63.0991L87.0001 63.4616L87.0013 63.4604L86.6557 63.0991ZM87.1947 62.5835L87.5598 62.2418L87.2144 61.8728L86.8491 62.2222L87.1947 62.5835ZM88.226 63.6851L87.8804 63.3237L87.3413 63.8394L87.6869 64.2007L88.0325 64.562L88.5716 64.0464L88.226 63.6851ZM87.6869 64.2007L87.3424 63.8383L81.6471 69.2524L81.9916 69.6147L82.3361 69.9771L88.0314 64.5631L87.6869 64.2007ZM81.9916 69.6147L81.6464 69.2531L81.1308 69.7453L81.476 70.1069L81.8212 70.4686L82.3369 69.9764L81.9916 69.6147ZM81.476 70.1069L81.8212 69.7453L81.3056 69.2531L80.9604 69.6147L80.6151 69.9764L81.1308 70.4686L81.476 70.1069ZM80.9604 69.6147L81.3042 69.2518L78.6324 66.7205L78.2885 67.0835L77.9446 67.4465L80.6165 69.9777L80.9604 69.6147ZM78.2885 67.0835L78.6341 66.7222L78.095 66.2066L77.7494 66.5679L77.4038 66.9292L77.9429 67.4448L78.2885 67.0835ZM77.7494 66.5679L78.1108 66.9135L79.142 65.8354L78.7807 65.4897L78.4194 65.1441L77.3881 66.2223L77.7494 66.5679ZM78.7807 65.4897L78.4351 65.8511L78.9741 66.3667L79.3197 66.0054L79.6654 65.6441L79.1263 65.1284L78.7807 65.4897ZM79.3197 66.0054L78.9783 66.3706L81.1346 68.3863L81.476 68.021L81.8174 67.6557L79.6612 65.6401L79.3197 66.0054ZM81.476 68.021L81.8204 68.3835L87.0001 63.4616L86.6557 63.0991L86.3113 62.7367L81.1316 67.6585L81.476 68.021ZM86.6557 63.0991L87.0013 63.4604L87.5404 62.9448L87.1947 62.5835L86.8491 62.2222L86.3101 62.7378L86.6557 63.0991ZM87.1947 62.5835L86.8297 62.9252L87.861 64.0268L88.226 63.6851L88.591 63.3433L87.5598 62.2418L87.1947 62.5835Z" fill="#0AB535" mask="url(#path-23-outside-1_4879_12443)"/>
<rect x="121" y="30" width="269" height="73" rx="4" fill="white"/>
<rect x="121.5" y="30.5" width="268" height="72" rx="3.5" stroke="#033F36" stroke-opacity="0.1"/>
<path d="M134.573 63V50.3174H139.565C140.438 50.3174 141.188 50.4785 141.815 50.8008C142.448 51.1172 142.935 51.5654 143.274 52.1455C143.62 52.7197 143.793 53.3994 143.793 54.1846V54.2021C143.793 55.0576 143.576 55.8105 143.143 56.4609C142.709 57.1055 142.108 57.5596 141.341 57.8232L144.18 63H141.895L139.311 58.1221C139.299 58.1221 139.281 58.1221 139.258 58.1221C139.24 58.1221 139.226 58.1221 139.214 58.1221H136.542V63H134.573ZM136.542 56.5225H139.372C140.134 56.5225 140.723 56.3262 141.139 55.9336C141.555 55.5352 141.763 54.9756 141.763 54.2549V54.2373C141.763 53.5342 141.546 52.9805 141.112 52.5762C140.679 52.1719 140.081 51.9697 139.319 51.9697H136.542V56.5225ZM149.546 63.1846C148.614 63.1846 147.814 62.9854 147.147 62.5869C146.479 62.1826 145.963 61.6113 145.6 60.873C145.242 60.1348 145.064 59.2646 145.064 58.2627V58.2539C145.064 57.2578 145.242 56.3877 145.6 55.6436C145.963 54.8994 146.473 54.3193 147.129 53.9033C147.785 53.4873 148.556 53.2793 149.44 53.2793C150.331 53.2793 151.096 53.4814 151.734 53.8857C152.379 54.2842 152.874 54.8438 153.22 55.5645C153.565 56.2793 153.738 57.1143 153.738 58.0693V58.7373H146.03V57.375H152.789L151.875 58.6318V57.876C151.875 57.1963 151.77 56.6338 151.559 56.1885C151.354 55.7373 151.069 55.4033 150.706 55.1865C150.349 54.9639 149.933 54.8525 149.458 54.8525C148.983 54.8525 148.559 54.9697 148.184 55.2041C147.814 55.4326 147.522 55.7725 147.305 56.2236C147.094 56.6689 146.988 57.2197 146.988 57.876V58.6406C146.988 59.2617 147.094 59.7949 147.305 60.2402C147.516 60.6855 147.814 61.0254 148.201 61.2598C148.594 61.4941 149.054 61.6113 149.581 61.6113C149.991 61.6113 150.343 61.5557 150.636 61.4443C150.935 61.3271 151.178 61.1836 151.365 61.0137C151.559 60.8438 151.69 60.6768 151.761 60.5127L151.796 60.4424L153.642 60.4336L153.615 60.5127C153.539 60.835 153.398 61.1543 153.193 61.4707C152.988 61.7812 152.716 62.0654 152.376 62.3232C152.042 62.5811 151.638 62.7891 151.163 62.9473C150.694 63.1055 150.155 63.1846 149.546 63.1846ZM162.014 66.1729V61.5498H161.864C161.7 61.8896 161.475 62.1797 161.188 62.4199C160.9 62.6602 160.564 62.8447 160.177 62.9736C159.796 63.0967 159.377 63.1582 158.92 63.1582C158.117 63.1582 157.42 62.959 156.828 62.5605C156.236 62.1562 155.779 61.585 155.457 60.8467C155.135 60.1084 154.974 59.2383 154.974 58.2363V58.2275C154.974 57.2197 155.135 56.3496 155.457 55.6172C155.779 54.8789 156.236 54.3105 156.828 53.9121C157.426 53.5078 158.129 53.3057 158.938 53.3057C159.371 53.3057 159.775 53.376 160.15 53.5166C160.525 53.6572 160.862 53.8564 161.161 54.1143C161.466 54.3721 161.712 54.6855 161.899 55.0547H162.014V53.4639H163.921V66.1729H162.014ZM159.483 61.5234C160.004 61.5234 160.455 61.3916 160.836 61.1279C161.223 60.8584 161.522 60.4775 161.733 59.9854C161.943 59.4932 162.049 58.9131 162.049 58.2451V58.2275C162.049 57.5479 161.943 56.9648 161.733 56.4785C161.522 55.9863 161.223 55.6084 160.836 55.3447C160.455 55.0752 160.001 54.9404 159.474 54.9404C158.946 54.9404 158.489 55.0723 158.103 55.3359C157.722 55.5996 157.429 55.9775 157.224 56.4697C157.019 56.9561 156.916 57.542 156.916 58.2275V58.2363C156.916 58.916 157.019 59.502 157.224 59.9941C157.435 60.4863 157.731 60.8643 158.111 61.1279C158.492 61.3916 158.949 61.5234 159.483 61.5234ZM169.261 63.1846C168.546 63.1846 167.945 63.0469 167.459 62.7715C166.973 62.4902 166.607 62.0859 166.36 61.5586C166.114 61.0254 165.991 60.3838 165.991 59.6338V53.4639H167.899V59.1943C167.899 59.9795 168.054 60.5684 168.364 60.9609C168.675 61.3477 169.182 61.541 169.885 61.541C170.26 61.541 170.591 61.4854 170.878 61.374C171.171 61.2568 171.417 61.0898 171.616 60.873C171.816 60.6562 171.965 60.3955 172.065 60.0908C172.164 59.7861 172.214 59.4434 172.214 59.0625V53.4639H174.121V63H172.214V61.5586H172.065C171.918 61.8984 171.713 62.1914 171.449 62.4375C171.186 62.6777 170.869 62.8623 170.5 62.9912C170.137 63.1201 169.724 63.1846 169.261 63.1846ZM180.305 63.1846C179.373 63.1846 178.573 62.9854 177.905 62.5869C177.237 62.1826 176.722 61.6113 176.359 60.873C176.001 60.1348 175.822 59.2646 175.822 58.2627V58.2539C175.822 57.2578 176.001 56.3877 176.359 55.6436C176.722 54.8994 177.232 54.3193 177.888 53.9033C178.544 53.4873 179.315 53.2793 180.199 53.2793C181.09 53.2793 181.855 53.4814 182.493 53.8857C183.138 54.2842 183.633 54.8438 183.979 55.5645C184.324 56.2793 184.497 57.1143 184.497 58.0693V58.7373H176.789V57.375H183.548L182.634 58.6318V57.876C182.634 57.1963 182.528 56.6338 182.318 56.1885C182.112 55.7373 181.828 55.4033 181.465 55.1865C181.108 54.9639 180.692 54.8525 180.217 54.8525C179.742 54.8525 179.318 54.9697 178.943 55.2041C178.573 55.4326 178.28 55.7725 178.064 56.2236C177.853 56.6689 177.747 57.2197 177.747 57.876V58.6406C177.747 59.2617 177.853 59.7949 178.064 60.2402C178.275 60.6855 178.573 61.0254 178.96 61.2598C179.353 61.4941 179.813 61.6113 180.34 61.6113C180.75 61.6113 181.102 61.5557 181.395 61.4443C181.694 61.3271 181.937 61.1836 182.124 61.0137C182.318 60.8438 182.449 60.6768 182.52 60.5127L182.555 60.4424L184.401 60.4336L184.374 60.5127C184.298 60.835 184.157 61.1543 183.952 61.4707C183.747 61.7812 183.475 62.0654 183.135 62.3232C182.801 62.5811 182.397 62.7891 181.922 62.9473C181.453 63.1055 180.914 63.1846 180.305 63.1846ZM189.67 63.1846C188.903 63.1846 188.235 63.0732 187.666 62.8506C187.098 62.6221 186.647 62.3057 186.313 61.9014C185.979 61.4971 185.782 61.0283 185.724 60.4951V60.4775H187.64V60.4951C187.763 60.8584 187.994 61.1514 188.334 61.374C188.68 61.5967 189.137 61.708 189.705 61.708C190.098 61.708 190.441 61.6523 190.734 61.541C191.032 61.4297 191.267 61.2773 191.437 61.084C191.607 60.8848 191.692 60.6562 191.692 60.3984V60.3809C191.692 60.082 191.571 59.8301 191.331 59.625C191.091 59.4199 190.696 59.2529 190.145 59.124L188.624 58.7725C188.027 58.6377 187.531 58.4531 187.139 58.2188C186.746 57.9844 186.456 57.6973 186.269 57.3574C186.081 57.0117 185.987 56.6074 185.987 56.1445V56.1357C185.987 55.5791 186.146 55.0869 186.462 54.6592C186.779 54.2314 187.215 53.8945 187.772 53.6484C188.334 53.4023 188.973 53.2793 189.688 53.2793C190.42 53.2793 191.056 53.3936 191.595 53.6221C192.134 53.8506 192.562 54.1641 192.878 54.5625C193.195 54.9609 193.379 55.418 193.432 55.9336V55.9512H191.612L191.604 55.9336C191.522 55.5938 191.314 55.3125 190.98 55.0898C190.652 54.8672 190.218 54.7559 189.679 54.7559C189.333 54.7559 189.026 54.8115 188.756 54.9229C188.492 55.0283 188.281 55.1777 188.123 55.3711C187.971 55.5586 187.895 55.7812 187.895 56.0391V56.0479C187.895 56.2471 187.945 56.4229 188.044 56.5752C188.15 56.7217 188.311 56.8535 188.528 56.9707C188.75 57.082 189.04 57.1816 189.398 57.2695L190.909 57.6123C191.829 57.8291 192.509 58.1426 192.948 58.5527C193.394 58.9629 193.616 59.5137 193.616 60.2051V60.2139C193.616 60.8057 193.444 61.3242 193.098 61.7695C192.758 62.2148 192.289 62.5635 191.692 62.8154C191.1 63.0615 190.426 63.1846 189.67 63.1846ZM198.842 63.0615C197.805 63.0615 197.052 62.8623 196.583 62.4639C196.12 62.0654 195.889 61.4062 195.889 60.4863V54.9756H194.404V53.4639H195.889V51.0645H197.84V53.4639H199.87V54.9756H197.84V60.0469C197.84 60.5566 197.943 60.9258 198.148 61.1543C198.353 61.377 198.69 61.4883 199.158 61.4883C199.305 61.4883 199.428 61.4854 199.528 61.4795C199.627 61.4678 199.741 61.4561 199.87 61.4443V62.9648C199.724 62.9941 199.563 63.0176 199.387 63.0352C199.211 63.0527 199.03 63.0615 198.842 63.0615ZM211.28 63.3076C210.102 63.3076 209.082 63.0381 208.221 62.499C207.366 61.96 206.706 61.1953 206.243 60.2051C205.781 59.209 205.549 58.0312 205.549 56.6719V56.6543C205.549 55.2832 205.781 54.1025 206.243 53.1123C206.706 52.1221 207.366 51.3574 208.221 50.8184C209.076 50.2793 210.096 50.0098 211.28 50.0098C212.211 50.0098 213.052 50.1943 213.802 50.5635C214.558 50.9268 215.176 51.4307 215.657 52.0752C216.143 52.7197 216.439 53.4609 216.544 54.2988V54.3516H214.593L214.576 54.3164C214.452 53.7949 214.236 53.3438 213.925 52.9629C213.62 52.582 213.243 52.2861 212.791 52.0752C212.34 51.8643 211.836 51.7588 211.28 51.7588C210.524 51.7588 209.868 51.958 209.311 52.3564C208.754 52.7549 208.324 53.3203 208.019 54.0527C207.72 54.7793 207.571 55.6465 207.571 56.6543V56.6719C207.571 57.668 207.72 58.5322 208.019 59.2646C208.324 59.9971 208.754 60.5625 209.311 60.9609C209.868 61.3594 210.527 61.5586 211.288 61.5586C211.845 61.5586 212.349 61.4648 212.8 61.2773C213.257 61.084 213.638 60.8145 213.943 60.4688C214.247 60.1172 214.458 59.7041 214.576 59.2295L214.593 59.1855H216.553V59.2383C216.424 60.0527 216.122 60.7646 215.648 61.374C215.173 61.9834 214.564 62.458 213.82 62.7979C213.076 63.1377 212.229 63.3076 211.28 63.3076ZM218.333 63V53.4639H220.241V54.9141H220.381C220.551 54.4043 220.85 54.0088 221.278 53.7275C221.705 53.4463 222.236 53.3057 222.869 53.3057C223.021 53.3057 223.173 53.3145 223.326 53.332C223.478 53.3438 223.601 53.3613 223.695 53.3848V55.1514C223.525 55.1104 223.358 55.0811 223.194 55.0635C223.03 55.0459 222.857 55.0371 222.675 55.0371C222.189 55.0371 221.764 55.1309 221.401 55.3184C221.037 55.5059 220.753 55.7695 220.548 56.1094C220.343 56.4434 220.241 56.8418 220.241 57.3047V63H218.333ZM228.709 63.1846C227.778 63.1846 226.978 62.9854 226.31 62.5869C225.642 62.1826 225.126 61.6113 224.763 60.873C224.406 60.1348 224.227 59.2646 224.227 58.2627V58.2539C224.227 57.2578 224.406 56.3877 224.763 55.6436C225.126 54.8994 225.636 54.3193 226.292 53.9033C226.949 53.4873 227.719 53.2793 228.604 53.2793C229.495 53.2793 230.259 53.4814 230.898 53.8857C231.542 54.2842 232.037 54.8438 232.383 55.5645C232.729 56.2793 232.902 57.1143 232.902 58.0693V58.7373H225.194V57.375H231.953L231.038 58.6318V57.876C231.038 57.1963 230.933 56.6338 230.722 56.1885C230.517 55.7373 230.233 55.4033 229.87 55.1865C229.512 54.9639 229.096 54.8525 228.621 54.8525C228.147 54.8525 227.722 54.9697 227.347 55.2041C226.978 55.4326 226.685 55.7725 226.468 56.2236C226.257 56.6689 226.152 57.2197 226.152 57.876V58.6406C226.152 59.2617 226.257 59.7949 226.468 60.2402C226.679 60.6855 226.978 61.0254 227.365 61.2598C227.757 61.4941 228.217 61.6113 228.745 61.6113C229.155 61.6113 229.506 61.5557 229.799 61.4443C230.098 61.3271 230.341 61.1836 230.529 61.0137C230.722 60.8438 230.854 60.6768 230.924 60.5127L230.959 60.4424L232.805 60.4336L232.779 60.5127C232.703 60.835 232.562 61.1543 232.357 61.4707C232.152 61.7812 231.879 62.0654 231.539 62.3232C231.205 62.5811 230.801 62.7891 230.327 62.9473C229.858 63.1055 229.319 63.1846 228.709 63.1846ZM237.222 63.1582C236.619 63.1582 236.077 63.0439 235.596 62.8154C235.122 62.5811 234.747 62.25 234.471 61.8223C234.202 61.3945 234.067 60.8936 234.067 60.3193V60.3018C234.067 59.7334 234.205 59.2471 234.48 58.8428C234.755 58.4326 235.157 58.1133 235.684 57.8848C236.217 57.6504 236.862 57.5127 237.618 57.4717L241.142 57.2607V58.6055L237.881 58.8164C237.225 58.8516 236.742 58.9893 236.431 59.2295C236.126 59.4697 235.974 59.8008 235.974 60.2227V60.2402C235.974 60.6797 236.138 61.0225 236.466 61.2686C236.8 61.5146 237.225 61.6377 237.741 61.6377C238.215 61.6377 238.637 61.5439 239.006 61.3564C239.375 61.1631 239.665 60.9053 239.876 60.583C240.087 60.2549 240.193 59.8857 240.193 59.4756V56.4873C240.193 55.96 240.029 55.5586 239.701 55.2832C239.378 55.002 238.898 54.8613 238.259 54.8613C237.726 54.8613 237.292 54.9551 236.958 55.1426C236.624 55.3301 236.399 55.5938 236.282 55.9336L236.273 55.9688H234.436L234.445 55.8984C234.521 55.377 234.729 54.9199 235.069 54.5273C235.409 54.1348 235.857 53.8301 236.414 53.6133C236.97 53.3906 237.612 53.2793 238.338 53.2793C239.141 53.2793 239.821 53.4082 240.377 53.666C240.94 53.918 241.365 54.2842 241.652 54.7646C241.945 55.2393 242.091 55.8105 242.091 56.4785V63H240.193V61.6377H240.052C239.865 61.96 239.63 62.2354 239.349 62.4639C239.074 62.6924 238.754 62.8652 238.391 62.9824C238.034 63.0996 237.644 63.1582 237.222 63.1582ZM247.791 63.0615C246.754 63.0615 246.001 62.8623 245.533 62.4639C245.07 62.0654 244.838 61.4062 244.838 60.4863V54.9756H243.353V53.4639H244.838V51.0645H246.79V53.4639H248.82V54.9756H246.79V60.0469C246.79 60.5566 246.892 60.9258 247.097 61.1543C247.302 61.377 247.639 61.4883 248.108 61.4883C248.254 61.4883 248.377 61.4854 248.477 61.4795C248.577 61.4678 248.691 61.4561 248.82 61.4443V62.9648C248.673 62.9941 248.512 63.0176 248.336 63.0352C248.161 63.0527 247.979 63.0615 247.791 63.0615ZM254.388 63.1846C253.457 63.1846 252.657 62.9854 251.989 62.5869C251.321 62.1826 250.805 61.6113 250.442 60.873C250.084 60.1348 249.906 59.2646 249.906 58.2627V58.2539C249.906 57.2578 250.084 56.3877 250.442 55.6436C250.805 54.8994 251.315 54.3193 251.971 53.9033C252.627 53.4873 253.398 53.2793 254.283 53.2793C255.173 53.2793 255.938 53.4814 256.577 53.8857C257.221 54.2842 257.716 54.8438 258.062 55.5645C258.408 56.2793 258.581 57.1143 258.581 58.0693V58.7373H250.873V57.375H257.631L256.717 58.6318V57.876C256.717 57.1963 256.612 56.6338 256.401 56.1885C256.196 55.7373 255.912 55.4033 255.548 55.1865C255.191 54.9639 254.775 54.8525 254.3 54.8525C253.826 54.8525 253.401 54.9697 253.026 55.2041C252.657 55.4326 252.364 55.7725 252.147 56.2236C251.936 56.6689 251.831 57.2197 251.831 57.876V58.6406C251.831 59.2617 251.936 59.7949 252.147 60.2402C252.358 60.6855 252.657 61.0254 253.043 61.2598C253.436 61.4941 253.896 61.6113 254.423 61.6113C254.834 61.6113 255.185 61.5557 255.478 61.4443C255.777 61.3271 256.02 61.1836 256.208 61.0137C256.401 60.8438 256.533 60.6768 256.603 60.5127L256.638 60.4424L258.484 60.4336L258.458 60.5127C258.381 60.835 258.241 61.1543 258.036 61.4707C257.831 61.7812 257.558 62.0654 257.218 62.3232C256.884 62.5811 256.48 62.7891 256.005 62.9473C255.537 63.1055 254.998 63.1846 254.388 63.1846ZM263.762 63.167C262.96 63.167 262.262 62.9648 261.67 62.5605C261.079 62.1562 260.619 61.585 260.291 60.8467C259.968 60.1084 259.807 59.2412 259.807 58.2451V58.2275C259.807 57.2197 259.968 56.3496 260.291 55.6172C260.613 54.8789 261.07 54.3105 261.662 53.9121C262.253 53.5078 262.954 53.3057 263.762 53.3057C264.196 53.3057 264.603 53.376 264.984 53.5166C265.365 53.6514 265.702 53.8447 265.995 54.0967C266.294 54.3428 266.525 54.6387 266.689 54.9844H266.83V49.7373H268.746V63H266.83V61.4883H266.689C266.507 61.8398 266.273 62.1416 265.986 62.3936C265.699 62.6396 265.368 62.8301 264.993 62.9648C264.618 63.0996 264.208 63.167 263.762 63.167ZM264.298 61.5234C264.826 61.5234 265.28 61.3916 265.661 61.1279C266.047 60.8643 266.343 60.4863 266.548 59.9941C266.759 59.502 266.865 58.9189 266.865 58.2451V58.2275C266.865 57.5479 266.759 56.9648 266.548 56.4785C266.343 55.9863 266.047 55.6084 265.661 55.3447C265.28 55.0752 264.826 54.9404 264.298 54.9404C263.771 54.9404 263.317 55.0723 262.936 55.3359C262.555 55.5996 262.262 55.9775 262.057 56.4697C261.858 56.9561 261.758 57.542 261.758 58.2275V58.2451C261.758 58.9189 261.858 59.502 262.057 59.9941C262.262 60.4863 262.555 60.8643 262.936 61.1279C263.317 61.3916 263.771 61.5234 264.298 61.5234Z" fill="#101010"/>
<rect x="133" y="77" width="245" height="14" rx="3.73333" fill="#F5F5F5"/>
<rect x="70" y="227.5" width="26" height="26" rx="13" fill="#101010" fill-opacity="0.1"/>
<rect x="121" y="204" width="269" height="73" rx="4" fill="white"/>
<rect x="121.5" y="204.5" width="268" height="72" rx="3.5" stroke="#033F36" stroke-opacity="0.1"/>
<path d="M134.573 237V224.317H142.492V226.022H136.542V230.03H141.991V231.691H136.542V237H134.573ZM144.281 237V227.464H146.197V237H144.281ZM145.248 225.776C144.92 225.776 144.639 225.659 144.404 225.425C144.17 225.19 144.053 224.912 144.053 224.59C144.053 224.262 144.17 223.983 144.404 223.755C144.639 223.521 144.92 223.403 145.248 223.403C145.576 223.403 145.857 223.521 146.092 223.755C146.326 223.983 146.443 224.262 146.443 224.59C146.443 224.912 146.326 225.19 146.092 225.425C145.857 225.659 145.576 225.776 145.248 225.776ZM148.391 237V227.464H150.298V228.914H150.439C150.673 228.404 151.019 228.006 151.476 227.719C151.939 227.426 152.516 227.279 153.207 227.279C154.279 227.279 155.1 227.587 155.668 228.202C156.236 228.817 156.521 229.693 156.521 230.83V237H154.605V231.27C154.605 230.484 154.438 229.898 154.104 229.512C153.775 229.119 153.26 228.923 152.557 228.923C152.094 228.923 151.692 229.025 151.353 229.23C151.019 229.43 150.758 229.714 150.57 230.083C150.389 230.452 150.298 230.895 150.298 231.41V237H148.391ZM161.228 237.158C160.624 237.158 160.082 237.044 159.602 236.815C159.127 236.581 158.752 236.25 158.477 235.822C158.207 235.395 158.072 234.894 158.072 234.319V234.302C158.072 233.733 158.21 233.247 158.485 232.843C158.761 232.433 159.162 232.113 159.69 231.885C160.223 231.65 160.867 231.513 161.623 231.472L165.148 231.261V232.605L161.887 232.816C161.231 232.852 160.747 232.989 160.437 233.229C160.132 233.47 159.98 233.801 159.98 234.223V234.24C159.98 234.68 160.144 235.022 160.472 235.269C160.806 235.515 161.231 235.638 161.746 235.638C162.221 235.638 162.643 235.544 163.012 235.356C163.381 235.163 163.671 234.905 163.882 234.583C164.093 234.255 164.198 233.886 164.198 233.476V230.487C164.198 229.96 164.034 229.559 163.706 229.283C163.384 229.002 162.903 228.861 162.265 228.861C161.732 228.861 161.298 228.955 160.964 229.143C160.63 229.33 160.404 229.594 160.287 229.934L160.278 229.969H158.442L158.45 229.898C158.526 229.377 158.734 228.92 159.074 228.527C159.414 228.135 159.862 227.83 160.419 227.613C160.976 227.391 161.617 227.279 162.344 227.279C163.147 227.279 163.826 227.408 164.383 227.666C164.945 227.918 165.37 228.284 165.657 228.765C165.95 229.239 166.097 229.811 166.097 230.479V237H164.198V235.638H164.058C163.87 235.96 163.636 236.235 163.355 236.464C163.079 236.692 162.76 236.865 162.397 236.982C162.039 237.1 161.65 237.158 161.228 237.158ZM168.211 237V227.464H170.118V228.914H170.259C170.493 228.404 170.839 228.006 171.296 227.719C171.759 227.426 172.336 227.279 173.028 227.279C174.1 227.279 174.92 227.587 175.488 228.202C176.057 228.817 176.341 229.693 176.341 230.83V237H174.425V231.27C174.425 230.484 174.258 229.898 173.924 229.512C173.596 229.119 173.08 228.923 172.377 228.923C171.914 228.923 171.513 229.025 171.173 229.23C170.839 229.43 170.578 229.714 170.391 230.083C170.209 230.452 170.118 230.895 170.118 231.41V237H168.211ZM182.446 237.185C181.514 237.185 180.714 236.985 180.046 236.587C179.378 236.183 178.862 235.608 178.499 234.864C178.136 234.12 177.954 233.235 177.954 232.21V232.192C177.954 231.185 178.133 230.314 178.49 229.582C178.854 228.844 179.369 228.275 180.037 227.877C180.711 227.479 181.511 227.279 182.437 227.279C183.234 227.279 183.922 227.42 184.502 227.701C185.082 227.982 185.542 228.366 185.882 228.853C186.228 229.333 186.442 229.881 186.524 230.496L186.532 230.54H184.696L184.687 230.514C184.581 230.051 184.338 229.664 183.957 229.354C183.576 229.037 183.072 228.879 182.446 228.879C181.918 228.879 181.464 229.014 181.083 229.283C180.702 229.547 180.409 229.928 180.204 230.426C180.005 230.918 179.905 231.507 179.905 232.192V232.21C179.905 232.907 180.008 233.511 180.213 234.021C180.418 234.524 180.708 234.911 181.083 235.181C181.464 235.45 181.918 235.585 182.446 235.585C183.043 235.585 183.527 235.453 183.896 235.189C184.265 234.92 184.526 234.527 184.678 234.012L184.696 233.968L186.524 233.959L186.515 234.047C186.398 234.662 186.169 235.207 185.829 235.682C185.489 236.15 185.038 236.52 184.476 236.789C183.913 237.053 183.237 237.185 182.446 237.185ZM192.11 237.185C191.178 237.185 190.378 236.985 189.71 236.587C189.042 236.183 188.527 235.611 188.163 234.873C187.806 234.135 187.627 233.265 187.627 232.263V232.254C187.627 231.258 187.806 230.388 188.163 229.644C188.527 228.899 189.036 228.319 189.693 227.903C190.349 227.487 191.119 227.279 192.004 227.279C192.895 227.279 193.659 227.481 194.298 227.886C194.943 228.284 195.438 228.844 195.783 229.564C196.129 230.279 196.302 231.114 196.302 232.069V232.737H188.594V231.375H195.353L194.439 232.632V231.876C194.439 231.196 194.333 230.634 194.122 230.188C193.917 229.737 193.633 229.403 193.27 229.187C192.912 228.964 192.496 228.853 192.022 228.853C191.547 228.853 191.122 228.97 190.747 229.204C190.378 229.433 190.085 229.772 189.868 230.224C189.657 230.669 189.552 231.22 189.552 231.876V232.641C189.552 233.262 189.657 233.795 189.868 234.24C190.079 234.686 190.378 235.025 190.765 235.26C191.157 235.494 191.617 235.611 192.145 235.611C192.555 235.611 192.906 235.556 193.199 235.444C193.498 235.327 193.741 235.184 193.929 235.014C194.122 234.844 194.254 234.677 194.324 234.513L194.36 234.442L196.205 234.434L196.179 234.513C196.103 234.835 195.962 235.154 195.757 235.471C195.552 235.781 195.28 236.065 194.94 236.323C194.606 236.581 194.201 236.789 193.727 236.947C193.258 237.105 192.719 237.185 192.11 237.185ZM201.559 237L206.138 224.317H207.738V226.541H207.131L203.633 237H201.559ZM203.765 233.572L204.319 231.99H210.093L210.647 233.572H203.765ZM210.779 237L207.272 226.541V224.317H208.274L212.853 237H210.779ZM214.255 240.173V227.464H216.162V228.976H216.303C216.491 228.624 216.728 228.325 217.015 228.079C217.302 227.827 217.633 227.637 218.008 227.508C218.383 227.373 218.793 227.306 219.239 227.306C220.041 227.306 220.739 227.508 221.33 227.912C221.922 228.316 222.379 228.888 222.702 229.626C223.024 230.358 223.185 231.226 223.185 232.228V232.245C223.185 233.247 223.024 234.117 222.702 234.855C222.379 235.588 221.922 236.156 221.33 236.561C220.744 236.965 220.047 237.167 219.239 237.167C218.799 237.167 218.389 237.1 218.008 236.965C217.627 236.824 217.29 236.628 216.997 236.376C216.71 236.124 216.479 235.828 216.303 235.488H216.162V240.173H214.255ZM218.694 235.523C219.227 235.523 219.681 235.392 220.056 235.128C220.437 234.864 220.73 234.486 220.935 233.994C221.14 233.502 221.243 232.919 221.243 232.245V232.228C221.243 231.542 221.14 230.956 220.935 230.47C220.73 229.978 220.437 229.6 220.056 229.336C219.681 229.072 219.227 228.94 218.694 228.94C218.166 228.94 217.709 229.072 217.323 229.336C216.942 229.6 216.649 229.978 216.444 230.47C216.239 230.956 216.136 231.539 216.136 232.219V232.236C216.136 232.91 216.239 233.496 216.444 233.994C216.649 234.486 216.942 234.864 217.323 235.128C217.709 235.392 218.166 235.523 218.694 235.523ZM224.895 240.173V227.464H226.802V228.976H226.943C227.13 228.624 227.368 228.325 227.655 228.079C227.942 227.827 228.273 227.637 228.648 227.508C229.023 227.373 229.433 227.306 229.878 227.306C230.681 227.306 231.378 227.508 231.97 227.912C232.562 228.316 233.019 228.888 233.341 229.626C233.663 230.358 233.825 231.226 233.825 232.228V232.245C233.825 233.247 233.663 234.117 233.341 234.855C233.019 235.588 232.562 236.156 231.97 236.561C231.384 236.965 230.687 237.167 229.878 237.167C229.439 237.167 229.029 237.1 228.648 236.965C228.267 236.824 227.93 236.628 227.637 236.376C227.35 236.124 227.119 235.828 226.943 235.488H226.802V240.173H224.895ZM229.333 235.523C229.867 235.523 230.321 235.392 230.696 235.128C231.077 234.864 231.37 234.486 231.575 233.994C231.78 233.502 231.882 232.919 231.882 232.245V232.228C231.882 231.542 231.78 230.956 231.575 230.47C231.37 229.978 231.077 229.6 230.696 229.336C230.321 229.072 229.867 228.94 229.333 228.94C228.806 228.94 228.349 229.072 227.962 229.336C227.581 229.6 227.288 229.978 227.083 230.47C226.878 230.956 226.776 231.539 226.776 232.219V232.236C226.776 232.91 226.878 233.496 227.083 233.994C227.288 234.486 227.581 234.864 227.962 235.128C228.349 235.392 228.806 235.523 229.333 235.523ZM235.535 237V227.464H237.442V228.914H237.582C237.752 228.404 238.051 228.009 238.479 227.728C238.907 227.446 239.437 227.306 240.07 227.306C240.222 227.306 240.374 227.314 240.527 227.332C240.679 227.344 240.802 227.361 240.896 227.385V229.151C240.726 229.11 240.559 229.081 240.395 229.063C240.231 229.046 240.058 229.037 239.876 229.037C239.39 229.037 238.965 229.131 238.602 229.318C238.239 229.506 237.955 229.77 237.749 230.109C237.544 230.443 237.442 230.842 237.442 231.305V237H235.535ZM245.937 237.185C245.011 237.185 244.211 236.985 243.538 236.587C242.864 236.188 242.342 235.62 241.973 234.882C241.61 234.144 241.428 233.262 241.428 232.236V232.219C241.428 231.199 241.61 230.32 241.973 229.582C242.342 228.844 242.864 228.275 243.538 227.877C244.211 227.479 245.011 227.279 245.937 227.279C246.869 227.279 247.671 227.479 248.345 227.877C249.019 228.275 249.538 228.844 249.901 229.582C250.264 230.32 250.446 231.199 250.446 232.219V232.236C250.446 233.262 250.264 234.144 249.901 234.882C249.538 235.62 249.019 236.188 248.345 236.587C247.677 236.985 246.874 237.185 245.937 237.185ZM245.937 235.585C246.482 235.585 246.945 235.453 247.326 235.189C247.707 234.926 247.997 234.545 248.196 234.047C248.395 233.543 248.495 232.942 248.495 232.245V232.228C248.495 231.519 248.392 230.915 248.187 230.417C247.988 229.919 247.698 229.538 247.317 229.274C246.942 229.011 246.482 228.879 245.937 228.879C245.398 228.879 244.938 229.011 244.557 229.274C244.176 229.538 243.883 229.919 243.678 230.417C243.479 230.915 243.379 231.519 243.379 232.228V232.245C243.379 232.948 243.479 233.549 243.678 234.047C243.883 234.545 244.176 234.926 244.557 235.189C244.938 235.453 245.398 235.585 245.937 235.585ZM254.388 237L250.943 227.464H252.973L255.346 235.066H255.487L257.86 227.464H259.873L256.427 237H254.388ZM263.499 237.158C262.895 237.158 262.353 237.044 261.873 236.815C261.398 236.581 261.023 236.25 260.748 235.822C260.478 235.395 260.343 234.894 260.343 234.319V234.302C260.343 233.733 260.481 233.247 260.756 232.843C261.032 232.433 261.433 232.113 261.961 231.885C262.494 231.65 263.138 231.513 263.894 231.472L267.419 231.261V232.605L264.158 232.816C263.502 232.852 263.018 232.989 262.708 233.229C262.403 233.47 262.251 233.801 262.251 234.223V234.24C262.251 234.68 262.415 235.022 262.743 235.269C263.077 235.515 263.502 235.638 264.017 235.638C264.492 235.638 264.914 235.544 265.283 235.356C265.652 235.163 265.942 234.905 266.153 234.583C266.364 234.255 266.469 233.886 266.469 233.476V230.487C266.469 229.96 266.305 229.559 265.977 229.283C265.655 229.002 265.174 228.861 264.536 228.861C264.003 228.861 263.569 228.955 263.235 229.143C262.901 229.33 262.675 229.594 262.558 229.934L262.549 229.969H260.712L260.721 229.898C260.797 229.377 261.005 228.92 261.345 228.527C261.685 228.135 262.133 227.83 262.69 227.613C263.247 227.391 263.888 227.279 264.615 227.279C265.418 227.279 266.097 227.408 266.654 227.666C267.216 227.918 267.641 228.284 267.928 228.765C268.221 229.239 268.368 229.811 268.368 230.479V237H266.469V235.638H266.329C266.141 235.96 265.907 236.235 265.626 236.464C265.35 236.692 265.031 236.865 264.668 236.982C264.31 237.1 263.92 237.158 263.499 237.158ZM270.57 237V223.737H272.477V237H270.57Z" fill="#101010"/>
<rect x="133" y="251" width="245" height="14" rx="3.73333" fill="#F5F5F5"/>
<rect x="70" y="314.5" width="26" height="26" rx="13" fill="#101010" fill-opacity="0.1"/>
<rect x="121" y="291" width="269" height="73" rx="4" fill="white"/>
<rect x="121.5" y="291.5" width="268" height="72" rx="3.5" stroke="#033F36" stroke-opacity="0.1"/>
<path d="M134.573 324V311.317H142.624V313.022H136.542V316.723H142.299V318.357H136.542V322.295H142.624V324H134.573ZM143.939 324L147.103 319.254L143.912 314.464H146.127L148.184 317.874H148.324L150.355 314.464H152.464L149.317 319.175L152.499 324H150.328L148.245 320.563H148.105L146.022 324H143.939ZM157.461 324.185C156.529 324.185 155.73 323.985 155.062 323.587C154.394 323.183 153.878 322.611 153.515 321.873C153.157 321.135 152.979 320.265 152.979 319.263V319.254C152.979 318.258 153.157 317.388 153.515 316.644C153.878 315.899 154.388 315.319 155.044 314.903C155.7 314.487 156.471 314.279 157.356 314.279C158.246 314.279 159.011 314.481 159.649 314.886C160.294 315.284 160.789 315.844 161.135 316.564C161.481 317.279 161.653 318.114 161.653 319.069V319.737H153.945V318.375H160.704L159.79 319.632V318.876C159.79 318.196 159.685 317.634 159.474 317.188C159.269 316.737 158.984 316.403 158.621 316.187C158.264 315.964 157.848 315.853 157.373 315.853C156.899 315.853 156.474 315.97 156.099 316.204C155.73 316.433 155.437 316.772 155.22 317.224C155.009 317.669 154.903 318.22 154.903 318.876V319.641C154.903 320.262 155.009 320.795 155.22 321.24C155.431 321.686 155.73 322.025 156.116 322.26C156.509 322.494 156.969 322.611 157.496 322.611C157.906 322.611 158.258 322.556 158.551 322.444C158.85 322.327 159.093 322.184 159.28 322.014C159.474 321.844 159.606 321.677 159.676 321.513L159.711 321.442L161.557 321.434L161.53 321.513C161.454 321.835 161.314 322.154 161.108 322.471C160.903 322.781 160.631 323.065 160.291 323.323C159.957 323.581 159.553 323.789 159.078 323.947C158.609 324.105 158.07 324.185 157.461 324.185ZM167.371 324.185C166.44 324.185 165.64 323.985 164.972 323.587C164.304 323.183 163.788 322.608 163.425 321.864C163.062 321.12 162.88 320.235 162.88 319.21V319.192C162.88 318.185 163.059 317.314 163.416 316.582C163.779 315.844 164.295 315.275 164.963 314.877C165.637 314.479 166.437 314.279 167.362 314.279C168.159 314.279 168.848 314.42 169.428 314.701C170.008 314.982 170.468 315.366 170.808 315.853C171.153 316.333 171.367 316.881 171.449 317.496L171.458 317.54H169.621L169.612 317.514C169.507 317.051 169.264 316.664 168.883 316.354C168.502 316.037 167.998 315.879 167.371 315.879C166.844 315.879 166.39 316.014 166.009 316.283C165.628 316.547 165.335 316.928 165.13 317.426C164.931 317.918 164.831 318.507 164.831 319.192V319.21C164.831 319.907 164.934 320.511 165.139 321.021C165.344 321.524 165.634 321.911 166.009 322.181C166.39 322.45 166.844 322.585 167.371 322.585C167.969 322.585 168.452 322.453 168.821 322.189C169.191 321.92 169.451 321.527 169.604 321.012L169.621 320.968L171.449 320.959L171.441 321.047C171.323 321.662 171.095 322.207 170.755 322.682C170.415 323.15 169.964 323.52 169.401 323.789C168.839 324.053 168.162 324.185 167.371 324.185ZM176.209 324.185C175.494 324.185 174.894 324.047 174.407 323.771C173.921 323.49 173.555 323.086 173.309 322.559C173.063 322.025 172.94 321.384 172.94 320.634V314.464H174.847V320.194C174.847 320.979 175.002 321.568 175.313 321.961C175.623 322.348 176.13 322.541 176.833 322.541C177.208 322.541 177.539 322.485 177.826 322.374C178.119 322.257 178.365 322.09 178.565 321.873C178.764 321.656 178.913 321.396 179.013 321.091C179.112 320.786 179.162 320.443 179.162 320.062V314.464H181.069V324H179.162V322.559H179.013C178.866 322.898 178.661 323.191 178.398 323.438C178.134 323.678 177.818 323.862 177.448 323.991C177.085 324.12 176.672 324.185 176.209 324.185ZM186.831 324.062C185.794 324.062 185.041 323.862 184.572 323.464C184.11 323.065 183.878 322.406 183.878 321.486V315.976H182.393V314.464H183.878V312.064H185.829V314.464H187.86V315.976H185.829V321.047C185.829 321.557 185.932 321.926 186.137 322.154C186.342 322.377 186.679 322.488 187.148 322.488C187.294 322.488 187.417 322.485 187.517 322.479C187.616 322.468 187.731 322.456 187.86 322.444V323.965C187.713 323.994 187.552 324.018 187.376 324.035C187.2 324.053 187.019 324.062 186.831 324.062ZM193.428 324.185C192.496 324.185 191.697 323.985 191.029 323.587C190.361 323.183 189.845 322.611 189.482 321.873C189.124 321.135 188.946 320.265 188.946 319.263V319.254C188.946 318.258 189.124 317.388 189.482 316.644C189.845 315.899 190.355 315.319 191.011 314.903C191.667 314.487 192.438 314.279 193.322 314.279C194.213 314.279 194.978 314.481 195.616 314.886C196.261 315.284 196.756 315.844 197.102 316.564C197.447 317.279 197.62 318.114 197.62 319.069V319.737H189.912V318.375H196.671L195.757 319.632V318.876C195.757 318.196 195.652 317.634 195.441 317.188C195.236 316.737 194.951 316.403 194.588 316.187C194.231 315.964 193.815 315.853 193.34 315.853C192.865 315.853 192.441 315.97 192.066 316.204C191.697 316.433 191.404 316.772 191.187 317.224C190.976 317.669 190.87 318.22 190.87 318.876V319.641C190.87 320.262 190.976 320.795 191.187 321.24C191.398 321.686 191.697 322.025 192.083 322.26C192.476 322.494 192.936 322.611 193.463 322.611C193.873 322.611 194.225 322.556 194.518 322.444C194.817 322.327 195.06 322.184 195.247 322.014C195.441 321.844 195.572 321.677 195.643 321.513L195.678 321.442L197.524 321.434L197.497 321.513C197.421 321.835 197.281 322.154 197.075 322.471C196.87 322.781 196.598 323.065 196.258 323.323C195.924 323.581 195.52 323.789 195.045 323.947C194.576 324.105 194.037 324.185 193.428 324.185ZM202.802 324.167C201.999 324.167 201.302 323.965 200.71 323.561C200.118 323.156 199.658 322.585 199.33 321.847C199.008 321.108 198.847 320.241 198.847 319.245V319.228C198.847 318.22 199.008 317.35 199.33 316.617C199.653 315.879 200.11 315.311 200.701 314.912C201.293 314.508 201.993 314.306 202.802 314.306C203.236 314.306 203.643 314.376 204.024 314.517C204.405 314.651 204.741 314.845 205.034 315.097C205.333 315.343 205.565 315.639 205.729 315.984H205.869V310.737H207.785V324H205.869V322.488H205.729C205.547 322.84 205.313 323.142 205.026 323.394C204.739 323.64 204.408 323.83 204.033 323.965C203.658 324.1 203.247 324.167 202.802 324.167ZM203.338 322.523C203.866 322.523 204.32 322.392 204.7 322.128C205.087 321.864 205.383 321.486 205.588 320.994C205.799 320.502 205.905 319.919 205.905 319.245V319.228C205.905 318.548 205.799 317.965 205.588 317.479C205.383 316.986 205.087 316.608 204.7 316.345C204.32 316.075 203.866 315.94 203.338 315.94C202.811 315.94 202.357 316.072 201.976 316.336C201.595 316.6 201.302 316.978 201.097 317.47C200.898 317.956 200.798 318.542 200.798 319.228V319.245C200.798 319.919 200.898 320.502 201.097 320.994C201.302 321.486 201.595 321.864 201.976 322.128C202.357 322.392 202.811 322.523 203.338 322.523Z" fill="#101010"/>
<rect x="133" y="338" width="245" height="14" rx="3.73333" fill="#F5F5F5"/>
<g filter="url(#filter0_dddd_4879_12443)">
<rect x="44.5314" y="144.307" width="26" height="26" rx="13" transform="rotate(-3.73629 44.5314 144.307)" fill="#101010" fill-opacity="0.1"/>
<path d="M56.8259 150.352L59.0711 150.205L59.2177 152.45L56.9725 152.597L56.8259 150.352ZM52.2789 155.534L54.5241 155.388L54.6708 157.633L52.4255 157.779L52.2789 155.534ZM57.6078 162.326L57.4612 160.081L59.7064 159.935L59.8531 162.18L57.6078 162.326ZM64.2534 154.752L64.4 156.997L62.1548 157.144L62.0082 154.899L64.2534 154.752ZM53.5372 160.056L55.0003 158.363L56.6945 159.849L55.2065 161.52L53.5372 160.056ZM62.1058 161.07L60.4131 159.607L61.8996 157.912L63.5939 159.399L62.1058 161.07ZM53.0866 153.156L54.5497 151.463L56.2439 152.95L54.7574 154.644L53.0866 153.156Z" fill="#101010"/>
<g clip-path="url(#clip1_4879_12443)">
<rect x="93.8916" y="117.533" width="284.406" height="73" rx="4" transform="rotate(-3.73629 93.8916 117.533)" fill="white"/>
<path d="M109.586 149.578L108.76 136.923L111.031 136.774L115.716 146.597L115.856 146.588L119.232 136.239L121.503 136.091L122.33 148.746L120.532 148.864L119.926 139.585L118.961 139.648L120.807 136.488L116.682 149.115L115.226 149.21L109.502 137.227L111.734 140.12L110.778 140.182L111.384 149.461L109.586 149.578ZM127.309 148.58C126.707 148.619 126.159 148.54 125.664 148.344C125.175 148.141 124.78 147.835 124.477 147.426C124.18 147.017 124.013 146.525 123.975 145.952L123.974 145.935C123.937 145.368 124.043 144.873 124.291 144.452C124.54 144.025 124.919 143.68 125.431 143.418C125.947 143.149 126.582 142.97 127.333 142.879L130.836 142.439L130.924 143.781L127.684 144.204C127.031 144.282 126.558 144.451 126.264 144.711C125.975 144.97 125.845 145.311 125.872 145.732L125.873 145.749C125.902 146.188 126.088 146.519 126.432 146.743C126.781 146.967 127.213 147.062 127.727 147.029C128.201 146.998 128.616 146.877 128.972 146.665C129.328 146.448 129.6 146.172 129.79 145.837C129.979 145.496 130.06 145.121 130.033 144.711L129.839 141.729C129.804 141.203 129.614 140.813 129.269 140.56C128.929 140.3 128.441 140.191 127.803 140.233C127.271 140.268 126.845 140.389 126.524 140.598C126.203 140.807 125.995 141.085 125.9 141.432L125.893 141.467L124.06 141.587L124.065 141.516C124.107 140.991 124.284 140.521 124.598 140.107C124.911 139.694 125.339 139.36 125.88 139.108C126.421 138.849 127.054 138.696 127.779 138.649C128.58 138.597 129.267 138.681 129.839 138.902C130.417 139.117 130.865 139.455 131.182 139.915C131.506 140.37 131.689 140.93 131.733 141.597L132.158 148.104L130.263 148.228L130.174 146.869L130.034 146.878C129.868 147.212 129.652 147.502 129.386 147.748C129.126 147.994 128.819 148.187 128.464 148.328C128.115 148.468 127.73 148.552 127.309 148.58ZM134.267 147.967L133.646 138.451L135.549 138.327L135.644 139.774L135.784 139.764C135.985 139.241 136.304 138.82 136.741 138.504C137.184 138.182 137.75 137.998 138.44 137.953C139.51 137.883 140.349 138.136 140.956 138.713C141.563 139.29 141.904 140.146 141.978 141.28L142.38 147.437L140.468 147.562L140.095 141.843C140.043 141.06 139.839 140.486 139.48 140.122C139.127 139.752 138.6 139.589 137.898 139.635C137.436 139.665 137.042 139.794 136.717 140.021C136.396 140.241 136.155 140.542 135.992 140.922C135.834 141.303 135.773 141.75 135.806 142.264L136.17 147.842L134.267 147.967ZM147.087 147.288C146.485 147.327 145.937 147.249 145.442 147.052C144.954 146.849 144.558 146.543 144.255 146.134C143.958 145.725 143.791 145.234 143.754 144.661L143.753 144.643C143.716 144.076 143.821 143.582 144.07 143.16C144.318 142.733 144.698 142.388 145.209 142.126C145.726 141.857 146.36 141.678 147.111 141.588L150.615 141.148L150.702 142.49L147.462 142.913C146.81 142.99 146.336 143.159 146.042 143.419C145.754 143.679 145.623 144.019 145.651 144.44L145.652 144.458C145.68 144.896 145.866 145.227 146.21 145.452C146.559 145.675 146.991 145.771 147.506 145.737C147.979 145.706 148.394 145.585 148.75 145.374C149.106 145.157 149.379 144.881 149.568 144.545C149.757 144.204 149.838 143.829 149.812 143.42L149.617 140.438C149.583 139.912 149.393 139.522 149.047 139.268C148.707 139.009 148.219 138.9 147.582 138.941C147.049 138.976 146.623 139.098 146.302 139.307C145.981 139.516 145.773 139.793 145.678 140.14L145.672 140.176L143.839 140.295L143.843 140.225C143.885 139.699 144.063 139.23 144.376 138.816C144.69 138.402 145.117 138.069 145.658 137.816C146.199 137.558 146.832 137.405 147.557 137.357C148.358 137.305 149.045 137.389 149.617 137.61C150.195 137.825 150.643 138.163 150.961 138.624C151.284 139.078 151.467 139.639 151.511 140.305L151.936 146.813L150.041 146.937L149.953 145.577L149.812 145.586C149.646 145.92 149.43 146.21 149.164 146.457C148.905 146.703 148.597 146.896 148.242 147.036C147.893 147.177 147.508 147.261 147.087 147.288ZM158.29 149.763C157.483 149.815 156.777 149.75 156.172 149.566C155.567 149.388 155.077 149.112 154.7 148.737C154.329 148.362 154.088 147.914 153.978 147.393L153.985 147.366L155.915 147.24L155.925 147.266C156.028 147.588 156.277 147.839 156.67 148.019C157.064 148.204 157.576 148.277 158.208 148.235C158.997 148.184 159.599 147.965 160.015 147.58C160.43 147.195 160.617 146.681 160.575 146.037L160.454 144.196L160.314 144.205C160.143 144.556 159.92 144.865 159.643 145.129C159.372 145.388 159.054 145.591 158.688 145.738C158.322 145.885 157.919 145.973 157.481 146.002C156.674 146.054 155.962 145.907 155.347 145.56C154.731 145.206 154.239 144.698 153.873 144.035C153.507 143.366 153.294 142.582 153.235 141.681L153.234 141.672C153.175 140.76 153.283 139.946 153.559 139.229C153.835 138.512 154.259 137.939 154.83 137.508C155.4 137.071 156.095 136.826 156.913 136.773C157.358 136.744 157.771 136.787 158.155 136.903C158.538 137.019 158.882 137.196 159.185 137.435C159.488 137.673 159.742 137.965 159.947 138.31L160.052 138.303L159.949 136.733L161.861 136.608L162.47 145.931C162.517 146.65 162.377 147.288 162.049 147.844C161.727 148.399 161.245 148.841 160.603 149.171C159.961 149.507 159.19 149.704 158.29 149.763ZM157.904 144.397C158.442 144.362 158.896 144.206 159.265 143.93C159.635 143.647 159.907 143.274 160.082 142.811C160.263 142.347 160.334 141.817 160.295 141.22L160.294 141.203C160.255 140.612 160.116 140.096 159.876 139.653C159.641 139.211 159.323 138.876 158.921 138.65C158.518 138.418 158.048 138.319 157.51 138.355C156.978 138.389 156.53 138.548 156.167 138.83C155.809 139.106 155.546 139.478 155.377 139.947C155.208 140.416 155.142 140.946 155.181 141.536L155.182 141.554C155.221 142.15 155.355 142.667 155.583 143.104C155.811 143.542 156.121 143.877 156.512 144.11C156.908 144.336 157.372 144.432 157.904 144.397ZM168.656 145.906C167.727 145.967 166.916 145.82 166.223 145.466C165.53 145.106 164.979 144.57 164.568 143.856C164.163 143.143 163.928 142.286 163.863 141.287L163.862 141.278C163.797 140.284 163.919 139.404 164.227 138.638C164.541 137.872 165.012 137.26 165.64 136.802C166.268 136.344 167.023 136.086 167.906 136.029C168.794 135.971 169.571 136.122 170.234 136.484C170.903 136.84 171.434 137.366 171.826 138.063C172.217 138.753 172.444 139.575 172.507 140.528L172.55 141.195L164.858 141.697L164.77 140.338L171.514 139.897L170.684 141.211L170.635 140.457C170.59 139.779 170.448 139.224 170.209 138.794C169.975 138.357 169.67 138.042 169.293 137.849C168.922 137.65 168.499 137.566 168.026 137.597C167.552 137.628 167.136 137.773 166.777 138.031C166.424 138.283 166.153 138.642 165.966 139.106C165.785 139.564 165.716 140.12 165.758 140.775L165.808 141.538C165.849 142.158 165.989 142.683 166.228 143.114C166.468 143.545 166.788 143.864 167.189 144.073C167.596 144.281 168.063 144.368 168.589 144.334C168.998 144.307 169.345 144.229 169.631 144.098C169.921 143.962 170.154 143.803 170.33 143.621C170.512 143.439 170.633 143.264 170.692 143.095L170.723 143.023L172.564 142.894L172.543 142.975C172.488 143.301 172.368 143.629 172.184 143.958C172 144.281 171.747 144.583 171.424 144.862C171.108 145.141 170.718 145.375 170.255 145.564C169.797 145.752 169.265 145.866 168.656 145.906ZM174.525 145.338L173.904 135.822L175.807 135.698L175.902 137.145L176.042 137.136C176.178 136.616 176.451 136.202 176.859 135.893C177.268 135.585 177.788 135.41 178.419 135.368C178.571 135.359 178.724 135.357 178.877 135.365C179.03 135.367 179.154 135.376 179.249 135.394L179.364 137.156C179.192 137.127 179.023 137.108 178.858 137.101C178.693 137.094 178.52 137.097 178.339 137.109C177.854 137.141 177.436 137.262 177.086 137.473C176.735 137.683 176.469 137.965 176.287 138.317C176.104 138.664 176.027 139.068 176.058 139.53L176.429 145.213L174.525 145.338ZM185.647 144.611L184.821 131.956L189.803 131.63C190.674 131.574 191.433 131.685 192.079 131.966C192.731 132.241 193.246 132.656 193.623 133.213C194.005 133.763 194.222 134.43 194.273 135.214L194.274 135.231C194.33 136.085 194.163 136.851 193.772 137.528C193.382 138.199 192.812 138.692 192.063 139.005L195.233 143.985L192.953 144.134L190.057 139.435C190.045 139.436 190.028 139.437 190.004 139.439C189.987 139.44 189.972 139.441 189.96 139.441L187.294 139.616L187.612 144.483L185.647 144.611ZM187.19 138.019L190.014 137.835C190.774 137.785 191.349 137.551 191.738 137.132C192.128 136.707 192.299 136.136 192.252 135.416L192.251 135.399C192.205 134.697 191.952 134.159 191.493 133.784C191.034 133.408 190.425 133.246 189.665 133.295L186.893 133.476L187.19 138.019ZM200.6 143.82C199.671 143.881 198.86 143.734 198.167 143.38C197.474 143.02 196.922 142.483 196.512 141.77C196.107 141.057 195.872 140.2 195.807 139.201L195.806 139.192C195.741 138.198 195.863 137.318 196.171 136.552C196.485 135.786 196.956 135.174 197.584 134.716C198.211 134.258 198.967 134 199.85 133.943C200.738 133.885 201.514 134.036 202.178 134.398C202.847 134.754 203.378 135.28 203.77 135.977C204.161 136.667 204.388 137.489 204.45 138.442L204.494 139.109L196.802 139.611L196.714 138.252L203.458 137.811L202.628 139.125L202.578 138.371C202.534 137.693 202.392 137.138 202.153 136.708C201.919 136.271 201.613 135.956 201.237 135.763C200.866 135.564 200.443 135.48 199.97 135.511C199.496 135.542 199.08 135.687 198.721 135.945C198.367 136.197 198.097 136.555 197.91 137.02C197.729 137.478 197.659 138.034 197.702 138.689L197.752 139.452C197.792 140.072 197.932 140.597 198.172 141.028C198.411 141.459 198.732 141.778 199.133 141.987C199.54 142.195 200.007 142.282 200.533 142.248C200.942 142.221 201.289 142.143 201.574 142.012C201.865 141.876 202.098 141.717 202.274 141.535C202.456 141.353 202.577 141.178 202.636 141.009L202.667 140.937L204.508 140.808L204.487 140.889C204.432 141.215 204.312 141.543 204.128 141.872C203.944 142.195 203.691 142.497 203.368 142.776C203.052 143.055 202.662 143.289 202.199 143.478C201.741 143.666 201.208 143.78 200.6 143.82ZM208.872 143.095L204.813 133.803L206.839 133.671L209.702 141.103L209.843 141.094L211.715 133.353L213.724 133.222L210.907 142.962L208.872 143.095ZM215.709 142.648L215.088 133.132L217 133.008L217.621 142.523L215.709 142.648ZM215.943 131.385C215.615 131.407 215.327 131.308 215.078 131.09C214.829 130.871 214.694 130.601 214.673 130.279C214.651 129.952 214.75 129.667 214.969 129.423C215.188 129.174 215.461 129.039 215.788 129.017C216.116 128.996 216.404 129.095 216.653 129.313C216.902 129.526 217.037 129.796 217.058 130.124C217.079 130.445 216.98 130.731 216.762 130.98C216.543 131.229 216.27 131.364 215.943 131.385ZM223.821 142.303C222.892 142.364 222.081 142.218 221.388 141.863C220.695 141.504 220.144 140.967 219.733 140.254C219.328 139.541 219.093 138.684 219.028 137.684L219.027 137.675C218.962 136.681 219.084 135.802 219.392 135.036C219.706 134.269 220.177 133.657 220.805 133.199C221.433 132.742 222.188 132.484 223.071 132.426C223.959 132.368 224.736 132.52 225.399 132.882C226.068 133.237 226.599 133.764 226.991 134.46C227.382 135.151 227.609 135.973 227.672 136.926L227.715 137.592L220.023 138.095L219.935 136.735L226.679 136.295L225.849 137.609L225.8 136.854C225.755 136.176 225.613 135.622 225.374 135.191C225.14 134.754 224.835 134.44 224.458 134.247C224.087 134.048 223.664 133.964 223.191 133.995C222.717 134.026 222.301 134.17 221.942 134.429C221.589 134.681 221.318 135.039 221.131 135.503C220.95 135.962 220.881 136.518 220.923 137.173L220.973 137.936C221.014 138.556 221.154 139.081 221.393 139.511C221.633 139.942 221.953 140.262 222.354 140.47C222.761 140.679 223.228 140.766 223.754 140.731C224.163 140.705 224.51 140.626 224.796 140.496C225.086 140.36 225.319 140.2 225.495 140.019C225.677 139.836 225.798 139.661 225.857 139.493L225.888 139.421L227.729 139.291L227.708 139.372C227.653 139.699 227.533 140.026 227.349 140.356C227.165 140.679 226.912 140.98 226.589 141.26C226.273 141.539 225.883 141.773 225.42 141.961C224.962 142.15 224.43 142.264 223.821 142.303ZM231.445 141.621L228.21 132.276L230.122 132.151L232.303 139.389L232.443 139.38L233.919 131.903L235.735 131.784L238.179 139.005L238.319 138.996L239.541 131.536L241.435 131.412L239.434 141.099L237.47 141.227L235.033 134.261L234.893 134.27L233.4 141.493L231.445 141.621Z" fill="#101010"/>
<rect x="108.929" y="163.651" width="260.406" height="14" rx="3.73333" transform="rotate(-3.73629 108.929 163.651)" fill="#F5F5F5"/>
</g>
<rect x="94.4231" y="118" width="283.406" height="72" rx="3.5" transform="rotate(-3.73629 94.4231 118)" stroke="#033F36" stroke-opacity="0.1"/>
</g>
<rect x="86" y="185" width="34" height="34" rx="17" fill="#005FFB"/>
<path d="M98.6283 194.909L102.779 193.774C102.917 193.746 103.083 193.746 103.221 193.774L107.372 194.909C107.676 194.992 107.87 195.268 107.87 195.545C107.87 195.794 107.759 196.015 107.538 196.126L106.984 196.458V197.15C106.984 197.454 106.818 197.758 106.542 197.897V198.589C106.542 200.553 104.965 202.13 103 202.13C101.035 202.13 99.4583 200.553 99.4583 198.589V197.897C99.1816 197.758 99.0156 197.454 99.0156 197.15V196.458L98.4622 196.126C98.2409 196.015 98.1302 195.794 98.1302 195.545C98.1302 195.268 98.3239 194.992 98.6283 194.909ZM103 198.589C102.198 198.589 101.423 198.45 100.786 198.312V198.589C100.786 199.806 101.783 200.802 103 200.802C104.217 200.802 105.214 199.806 105.214 198.589V198.312C104.577 198.45 103.802 198.589 103 198.589ZM100.759 203.541L102.613 204.925C102.834 205.118 103.166 205.118 103.387 204.925L105.241 203.541C105.435 203.403 105.684 203.375 105.878 203.458C107.565 204.233 108.755 205.949 108.755 207.941C108.755 208.411 108.396 208.771 107.925 208.771H98.0749C97.6045 208.771 97.2448 208.411 97.2448 207.941C97.2448 205.949 98.4346 204.233 100.122 203.458C100.344 203.375 100.565 203.403 100.759 203.541ZM102.834 195.434L102.059 196.209C101.976 196.292 101.976 196.458 102.059 196.541L102.834 197.316C102.945 197.399 103.083 197.399 103.166 197.316L103.941 196.541C104.051 196.458 104.051 196.292 103.941 196.209L103.166 195.434C103.083 195.351 102.945 195.351 102.834 195.434ZM105.214 207.443C105.712 207.443 106.099 207.055 106.099 206.557C106.099 206.059 105.712 205.672 105.214 205.672C104.715 205.672 104.328 206.059 104.328 206.557C104.328 207.055 104.715 207.443 105.214 207.443Z" fill="white"/>
<g filter="url(#filter1_d_4879_12443)">
<path d="M60.7503 170.375C59.7918 168.089 62.0889 165.792 64.3745 166.75L82.9174 174.527C85.1006 175.442 85.2024 178.498 83.0849 179.556L77.558 182.32C77.0221 182.588 76.5876 183.022 76.3197 183.558L73.5563 189.085C72.4975 191.203 69.4419 191.101 68.5264 188.918L60.7503 170.375Z" fill="#005FFB"/>
<path d="M59.8067 170.77C58.4941 167.64 61.6401 164.494 64.7703 165.807L83.3132 173.583C86.303 174.837 86.4423 179.022 83.5424 180.472L78.0154 183.235C77.6777 183.404 77.404 183.678 77.2351 184.015L74.4716 189.543C73.0216 192.442 68.8367 192.303 67.5828 189.313L59.8067 170.77Z" stroke="white" stroke-width="2.04616"/>
</g>
</g>
<defs>
<filter id="filter0_dddd_4879_12443" x="24" y="91" width="428.45" height="244.701" filterUnits="userSpaceOnUse" color-interpolation-filters="sRGB">
<feFlood flood-opacity="0" result="BackgroundImageFix"/>
<feColorMatrix in="SourceAlpha" type="matrix" values="0 0 0 0 0 0 0 0 0 0 0 0 0 0 0 0 0 0 127 0" result="hardAlpha"/>
<feOffset dx="2" dy="6"/>
<feGaussianBlur stdDeviation="7"/>
<feColorMatrix type="matrix" values="0 0 0 0 0 0 0 0 0 0 0 0 0 0 0 0 0 0 0.1 0"/>
<feBlend mode="normal" in2="BackgroundImageFix" result="effect1_dropShadow_4879_12443"/>
<feColorMatrix in="SourceAlpha" type="matrix" values="0 0 0 0 0 0 0 0 0 0 0 0 0 0 0 0 0 0 127 0" result="hardAlpha"/>
<feOffset dx="7" dy="25"/>
<feGaussianBlur stdDeviation="13"/>
<feColorMatrix type="matrix" values="0 0 0 0 0 0 0 0 0 0 0 0 0 0 0 0 0 0 0.09 0"/>
<feBlend mode="normal" in2="effect1_dropShadow_4879_12443" result="effect2_dropShadow_4879_12443"/>
<feColorMatrix in="SourceAlpha" type="matrix" values="0 0 0 0 0 0 0 0 0 0 0 0 0 0 0 0 0 0 127 0" result="hardAlpha"/>
<feOffset dx="16" dy="56"/>
<feGaussianBlur stdDeviation="17.5"/>
<feColorMatrix type="matrix" values="0 0 0 0 0 0 0 0 0 0 0 0 0 0 0 0 0 0 0.05 0"/>
<feBlend mode="normal" in2="effect2_dropShadow_4879_12443" result="effect3_dropShadow_4879_12443"/>
<feColorMatrix in="SourceAlpha" type="matrix" values="0 0 0 0 0 0 0 0 0 0 0 0 0 0 0 0 0 0 127 0" result="hardAlpha"/>
<feOffset dx="28" dy="100"/>
<feGaussianBlur stdDeviation="21"/>
<feColorMatrix type="matrix" values="0 0 0 0 0 0 0 0 0 0 0 0 0 0 0 0 0 0 0.01 0"/>
<feBlend mode="normal" in2="effect3_dropShadow_4879_12443" result="effect4_dropShadow_4879_12443"/>
<feBlend mode="normal" in="SourceGraphic" in2="effect4_dropShadow_4879_12443" result="shape"/>
</filter>
<filter id="filter1_d_4879_12443" x="49.4718" y="157.518" width="46.1929" height="46.1927" filterUnits="userSpaceOnUse" color-interpolation-filters="sRGB">
<feFlood flood-opacity="0" result="BackgroundImageFix"/>
<feColorMatrix in="SourceAlpha" type="matrix" values="0 0 0 0 0 0 0 0 0 0 0 0 0 0 0 0 0 0 127 0" result="hardAlpha"/>
<feOffset dy="2.04616"/>
<feGaussianBlur stdDeviation="4.50154"/>
<feComposite in2="hardAlpha" operator="out"/>
<feColorMatrix type="matrix" values="0 0 0 0 0 0 0 0 0 0 0 0 0 0 0 0 0 0 0.2 0"/>
<feBlend mode="normal" in2="BackgroundImageFix" result="effect1_dropShadow_4879_12443"/>
<feBlend mode="normal" in="SourceGraphic" in2="effect1_dropShadow_4879_12443" result="shape"/>
</filter>
<clipPath id="clip0_4879_12443">
<rect width="350" height="350" rx="8" fill="white"/>
</clipPath>
<clipPath id="clip1_4879_12443">
<rect x="93.8916" y="117.533" width="284.406" height="73" rx="4" transform="rotate(-3.73629 93.8916 117.533)" fill="white"/>
</clipPath>
</defs>
</svg>
