<svg width="350" height="350" viewBox="0 0 350 350" fill="none" xmlns="http://www.w3.org/2000/svg">
<g clip-path="url(#clip0_4879_12293)">
<rect width="350" height="350" rx="8" fill="white"/>
<g opacity="0.06">
<path d="M19 -199V548" stroke="#033F36"/>
<path d="M43 -199V548" stroke="#033F36"/>
<path d="M67 -199V548" stroke="#033F36"/>
<path d="M91 -199V548" stroke="#033F36"/>
<path d="M115 -199V548" stroke="#033F36"/>
<path d="M139 -199V548" stroke="#033F36"/>
<path d="M163 -199V548" stroke="#033F36"/>
<path d="M187 -199V548" stroke="#033F36"/>
<path d="M211 -199V548" stroke="#033F36"/>
<path d="M235 -199V548" stroke="#033F36"/>
<path d="M259 -199V548" stroke="#033F36"/>
<path d="M283 -199V548" stroke="#033F36"/>
<path d="M307 -199V548" stroke="#033F36"/>
<path d="M331 -199V548" stroke="#033F36"/>
<path d="M548.5 46L-198.5 46" stroke="#033F36"/>
<path d="M548.5 99L-198.5 99" stroke="#033F36"/>
<path d="M548.5 152L-198.5 152" stroke="#033F36"/>
<path d="M548.5 205L-198.5 205" stroke="#033F36"/>
<path d="M548.5 258L-198.5 258" stroke="#033F36"/>
<path d="M548.5 311L-198.5 311" stroke="#033F36"/>
</g>
<g filter="url(#filter0_f_4879_12293)">
<rect x="103.001" y="79" width="143.144" height="174.954" rx="22.0015" fill="#D9D9D9"/>
</g>
<mask id="path-23-inside-1_4879_12293" fill="white">
<path d="M215.758 120.854L213.288 96.0827C213.289 96.0956 213.292 96.1085 213.293 96.1214L227.409 237.708C227.613 239.759 226.116 241.588 224.064 241.793L109.572 253.208C107.521 253.412 105.692 251.915 105.487 249.863L91.371 108.277C91.1664 106.225 92.6639 104.396 94.7156 104.192L179.055 95.783L215.758 120.854Z"/>
</mask>
<path d="M215.758 120.854L213.288 96.0827C213.289 96.0956 213.292 96.1085 213.293 96.1214L227.409 237.708C227.613 239.759 226.116 241.588 224.064 241.793L109.572 253.208C107.521 253.412 105.692 251.915 105.487 249.863L91.371 108.277C91.1664 106.225 92.6639 104.396 94.7156 104.192L179.055 95.783L215.758 120.854Z" fill="white"/>
<path d="M215.758 120.854L215.194 121.68L216.966 122.891L216.753 120.755L215.758 120.854ZM213.288 96.0827L214.282 95.9733L212.293 96.1819L213.288 96.0827ZM213.293 96.1214L212.298 96.2207L213.293 96.1214ZM227.409 237.708L228.404 237.608L228.404 237.608L227.409 237.708ZM105.487 249.863L104.492 249.962L104.492 249.962L105.487 249.863ZM179.055 95.783L179.619 94.9573L179.319 94.7518L178.956 94.7879L179.055 95.783ZM215.758 120.854L216.753 120.755L214.283 95.9835L213.288 96.0827L212.293 96.1819L214.763 120.954L215.758 120.854ZM213.288 96.0827L212.294 96.1921C212.295 96.2041 212.297 96.2143 212.298 96.2214C212.298 96.2278 212.299 96.2345 212.3 96.2359C212.3 96.2388 212.3 96.2378 212.3 96.2357C212.299 96.2334 212.299 96.228 212.298 96.2207L213.293 96.1214L214.288 96.0222C214.287 96.0084 214.285 95.9966 214.284 95.9878C214.283 95.9792 214.282 95.9718 214.282 95.9682C214.281 95.9656 214.281 95.9652 214.281 95.9639C214.281 95.963 214.281 95.9629 214.281 95.9633C214.281 95.9639 214.281 95.9677 214.282 95.9733L213.288 96.0827ZM213.293 96.1214L212.298 96.2207L226.414 237.807L227.409 237.708L228.404 237.608L214.288 96.0222L213.293 96.1214ZM227.409 237.708L226.414 237.807C226.564 239.309 225.467 240.648 223.965 240.798L224.064 241.793L224.164 242.788C226.765 242.529 228.663 240.209 228.404 237.608L227.409 237.708ZM224.064 241.793L223.965 240.798L109.473 252.213L109.572 253.208L109.672 254.203L224.164 242.788L224.064 241.793ZM109.572 253.208L109.473 252.213C107.971 252.362 106.632 251.266 106.482 249.764L105.487 249.863L104.492 249.962C104.751 252.563 107.07 254.462 109.672 254.203L109.572 253.208ZM105.487 249.863L106.482 249.764L92.3661 108.178L91.371 108.277L90.3759 108.376L104.492 249.962L105.487 249.863ZM91.371 108.277L92.3661 108.178C92.2163 106.676 93.3127 105.336 94.8148 105.187L94.7156 104.192L94.6164 103.197C92.0151 103.456 90.1166 105.775 90.3759 108.376L91.371 108.277ZM94.7156 104.192L94.8148 105.187L179.154 96.7781L179.055 95.783L178.956 94.7879L94.6164 103.197L94.7156 104.192ZM179.055 95.783L178.491 96.6087L215.194 121.68L215.758 120.854L216.322 120.029L179.619 94.9573L179.055 95.783Z" fill="#033F36" fill-opacity="0.1" mask="url(#path-23-inside-1_4879_12293)"/>
<rect x="107.913" y="164.442" width="80.3229" height="8.16843" rx="3.73333" transform="rotate(-5.69354 107.913 164.442)" fill="#F5F5F5"/>
<rect x="112.372" y="209.147" width="80.3229" height="8.16843" rx="3.73333" transform="rotate(-5.69354 112.372 209.147)" fill="#F5F5F5"/>
<rect x="109.132" y="176.634" width="100.744" height="8.16843" rx="3.73333" transform="rotate(-5.69354 109.132 176.634)" fill="#F5F5F5"/>
<rect x="113.588" y="221.339" width="100.744" height="8.16843" rx="3.73333" transform="rotate(-5.69354 113.588 221.339)" fill="#F5F5F5"/>
<rect x="110.346" y="188.826" width="100.744" height="8.16843" rx="3.73333" transform="rotate(-5.69354 110.346 188.826)" fill="#F5F5F5"/>
<rect x="114.802" y="233.531" width="100.744" height="8.16843" rx="3.73333" transform="rotate(-5.69354 114.802 233.531)" fill="#F5F5F5"/>
<path d="M179.054 95.783L215.758 120.855L185.605 123.861C183.554 124.066 181.725 122.568 181.52 120.517L179.054 95.783Z" fill="#F5F5F5"/>
<path d="M214.343 120.494L185.556 123.364C183.779 123.541 182.195 122.244 182.018 120.467L179.658 96.8003L214.343 120.494Z" stroke="#033F36" stroke-opacity="0.1"/>
<circle cx="115.244" cy="128.14" r="10.8912" transform="rotate(-5.69354 115.244 128.14)" fill="#F5F5F5"/>
<path d="M122.942 123.426L122.188 124.307L114.207 133.566L113.485 134.408L112.611 133.726L108.085 130.22L107.171 129.505L108.601 127.677L109.515 128.392L113.163 131.179L120.421 122.761L121.176 121.88L122.942 123.426Z" fill="#D7D7D7"/>
<mask id="path-35-inside-2_4879_12293" fill="white">
<path d="M224.134 101.407L255.165 133.227L243.522 250.083C243.317 252.134 241.489 253.632 239.438 253.428L124.944 242.02C122.893 241.815 121.395 239.986 121.599 237.935L135.707 96.3478C135.911 94.2962 137.74 92.7987 139.792 93.003L224.134 101.407Z"/>
</mask>
<path d="M224.134 101.407L255.165 133.227L243.522 250.083C243.317 252.134 241.489 253.632 239.438 253.428L124.944 242.02C122.893 241.815 121.395 239.986 121.599 237.935L135.707 96.3478C135.911 94.2962 137.74 92.7987 139.792 93.003L224.134 101.407Z" fill="white"/>
<path d="M224.134 101.407L224.85 100.708L224.596 100.448L224.233 100.411L224.134 101.407ZM255.165 133.227L256.16 133.326L256.206 132.862L255.881 132.529L255.165 133.227ZM243.522 250.083L244.517 250.182L244.517 250.182L243.522 250.083ZM239.438 253.428L239.339 254.423L239.339 254.423L239.438 253.428ZM124.944 242.02L124.845 243.015L124.845 243.015L124.944 242.02ZM121.599 237.935L120.604 237.836L120.604 237.836L121.599 237.935ZM139.792 93.003L139.891 92.0079L139.891 92.0079L139.792 93.003ZM224.134 101.407L223.418 102.105L254.449 133.925L255.165 133.227L255.881 132.529L224.85 100.708L224.134 101.407ZM255.165 133.227L254.17 133.128L242.527 249.984L243.522 250.083L244.517 250.182L256.16 133.326L255.165 133.227ZM243.522 250.083L242.527 249.984C242.377 251.486 241.039 252.582 239.537 252.433L239.438 253.428L239.339 254.423C241.94 254.682 244.258 252.783 244.517 250.182L243.522 250.083ZM239.438 253.428L239.537 252.433L125.043 241.025L124.944 242.02L124.845 243.015L239.339 254.423L239.438 253.428ZM124.944 242.02L125.043 241.025C123.541 240.875 122.445 239.536 122.594 238.034L121.599 237.935L120.604 237.836C120.345 240.437 122.244 242.756 124.845 243.015L124.944 242.02ZM121.599 237.935L122.594 238.034L136.702 96.447L135.707 96.3478L134.712 96.2487L120.604 237.836L121.599 237.935ZM135.707 96.3478L136.702 96.447C136.851 94.945 138.191 93.8485 139.693 93.998L139.792 93.003L139.891 92.0079C137.29 91.7489 134.971 93.6474 134.712 96.2487L135.707 96.3478ZM139.792 93.003L139.693 93.998L224.035 102.402L224.134 101.407L224.233 100.411L139.891 92.0079L139.792 93.003Z" fill="#033F36" fill-opacity="0.1" mask="url(#path-35-inside-2_4879_12293)"/>
<rect x="140.837" y="154.674" width="80.3229" height="8.16843" rx="3.73333" transform="rotate(5.69 140.837 154.674)" fill="#F5F5F5"/>
<rect x="136.385" y="199.379" width="80.3229" height="8.16843" rx="3.73333" transform="rotate(5.69 136.385 199.379)" fill="#F5F5F5"/>
<rect x="139.625" y="166.866" width="100.744" height="8.16843" rx="3.73333" transform="rotate(5.69 139.625 166.866)" fill="#F5F5F5"/>
<rect x="135.169" y="211.572" width="100.744" height="8.16843" rx="3.73333" transform="rotate(5.69 135.169 211.572)" fill="#F5F5F5"/>
<rect x="138.409" y="179.059" width="100.744" height="8.16843" rx="3.73333" transform="rotate(5.69 138.409 179.059)" fill="#F5F5F5"/>
<rect x="133.955" y="223.764" width="100.744" height="8.16843" rx="3.73333" transform="rotate(5.69 133.955 223.764)" fill="#F5F5F5"/>
<path d="M224.132 101.406L255.165 133.23L225.013 130.225C222.961 130.021 221.464 128.192 221.668 126.14L224.132 101.406Z" fill="#F5F5F5"/>
<path d="M253.849 132.596L225.062 129.728C223.285 129.551 221.989 127.967 222.165 126.19L224.524 102.523L253.849 132.596Z" stroke="#033F36" stroke-opacity="0.1"/>
<circle cx="155.188" cy="120.532" r="10.8912" transform="rotate(5.69 155.188 120.532)" fill="#F5F5F5"/>
<path d="M163.669 117.431L162.755 118.146L153.105 125.648L152.231 126.33L151.508 125.489L147.763 121.159L147.008 120.277L148.771 118.767L149.526 119.649L152.552 123.101L161.329 116.282L162.243 115.567L163.669 117.431Z" fill="#D7D7D7"/>
<mask id="path-47-inside-3_4879_12293" fill="white">
<path d="M206.312 79L246.075 112.4V250.221C246.075 252.282 244.403 253.953 242.341 253.953H106.664C104.602 253.953 102.931 252.282 102.93 250.221V82.7334C102.93 80.6717 104.602 79.0002 106.664 79H206.312Z"/>
</mask>
<path d="M206.312 79L246.075 112.4V250.221C246.075 252.282 244.403 253.953 242.341 253.953H106.664C104.602 253.953 102.931 252.282 102.93 250.221V82.7334C102.93 80.6717 104.602 79.0002 106.664 79H206.312Z" fill="white"/>
<path d="M206.312 79L206.955 78.2343L206.676 78H206.312V79ZM246.075 112.4H247.075V111.934L246.718 111.635L246.075 112.4ZM246.075 250.221L247.075 250.221V250.221H246.075ZM242.341 253.953V254.953H242.341L242.341 253.953ZM106.664 253.953L106.664 254.953H106.664V253.953ZM102.93 250.221H101.93V250.221L102.93 250.221ZM106.664 79V78H106.664L106.664 79ZM206.312 79L205.669 79.7657L245.432 113.166L246.075 112.4L246.718 111.635L206.955 78.2343L206.312 79ZM246.075 112.4H245.075V250.221H246.075H247.075V112.4H246.075ZM246.075 250.221L245.075 250.221C245.075 251.73 243.851 252.953 242.341 252.953L242.341 253.953L242.341 254.953C244.955 254.953 247.074 252.835 247.075 250.221L246.075 250.221ZM242.341 253.953V252.953H106.664V253.953V254.953H242.341V253.953ZM106.664 253.953L106.664 252.953C105.154 252.953 103.93 251.73 103.93 250.221L102.93 250.221L101.93 250.221C101.931 252.835 104.05 254.953 106.664 254.953L106.664 253.953ZM102.93 250.221H103.93V82.7334H102.93H101.93V250.221H102.93ZM102.93 82.7334H103.93C103.93 81.224 105.154 80.0001 106.664 80L106.664 79L106.664 78C104.05 78.0002 101.93 80.1193 101.93 82.7334H102.93ZM106.664 79V80H206.312V79V78H106.664V79Z" fill="#033F36" fill-opacity="0.1" mask="url(#path-47-inside-3_4879_12293)"/>
<rect x="115.654" y="150.572" width="93.8387" height="9.54292" rx="3.73333" fill="#F5F5F5"/>
<rect x="115.654" y="203.058" width="93.8387" height="9.54292" rx="3.73333" fill="#F5F5F5"/>
<rect x="115.654" y="164.886" width="117.696" height="9.54292" rx="3.73333" fill="#F5F5F5"/>
<rect x="115.654" y="217.373" width="117.696" height="9.54292" rx="3.73333" fill="#F5F5F5"/>
<rect x="115.654" y="179.201" width="117.696" height="9.54292" rx="3.73333" fill="#F5F5F5"/>
<rect x="115.654" y="231.687" width="117.696" height="9.54292" rx="3.73333" fill="#F5F5F5"/>
<path d="M206.31 79L246.072 112.4H210.043C207.981 112.4 206.31 110.729 206.31 108.667V79Z" fill="#F5F5F5"/>
<path d="M244.699 111.9H210.043C208.257 111.9 206.81 110.453 206.81 108.667V80.0723L244.699 111.9Z" stroke="#033F36" stroke-opacity="0.1"/>
<circle cx="128.377" cy="109.219" r="12.7239" fill="#0AB535" fill-opacity="0.1"/>
<mask id="path-58-outside-4_4879_12293" maskUnits="userSpaceOnUse" x="121.157" y="104" width="15" height="11" fill="black">
<rect fill="white" x="121.157" y="104" width="15" height="11"/>
<path d="M134.735 106.303L134.079 106.931L127.15 113.517L126.523 114.116L125.896 113.517L122.645 110.438L121.989 109.811L123.244 108.499L123.9 109.126L126.523 111.578L132.825 105.59L133.48 104.963L134.735 106.303Z"/>
</mask>
<path d="M134.735 106.303L134.079 106.931L127.15 113.517L126.523 114.116L125.896 113.517L122.645 110.438L121.989 109.811L123.244 108.499L123.9 109.126L126.523 111.578L132.825 105.59L133.48 104.963L134.735 106.303Z" fill="#0AB535"/>
<path d="M134.735 106.303L135.081 106.665L135.438 106.323L135.1 105.962L134.735 106.303ZM134.079 106.931L134.424 107.293L134.425 107.292L134.079 106.931ZM127.15 113.517L126.806 113.155L126.805 113.156L127.15 113.517ZM126.523 114.116L126.178 114.478L126.523 114.807L126.868 114.478L126.523 114.116ZM125.896 113.517L126.241 113.156L126.24 113.154L125.896 113.517ZM122.645 110.438L122.3 110.799L122.301 110.801L122.645 110.438ZM121.989 109.811L121.628 109.465L121.282 109.826L121.644 110.172L121.989 109.811ZM123.244 108.499L123.59 108.138L123.228 107.792L122.883 108.153L123.244 108.499ZM123.9 109.126L123.554 109.488L123.558 109.491L123.9 109.126ZM126.523 111.578L126.182 111.944L126.526 112.265L126.867 111.941L126.523 111.578ZM132.825 105.59L133.169 105.953L133.17 105.952L132.825 105.59ZM133.48 104.963L133.845 104.621L133.5 104.253L133.135 104.602L133.48 104.963ZM134.735 106.303L134.389 105.942L133.734 106.569L134.079 106.931L134.425 107.292L135.081 106.665L134.735 106.303ZM134.079 106.931L133.735 106.568L126.806 113.155L127.15 113.517L127.495 113.88L134.424 107.293L134.079 106.931ZM127.15 113.517L126.805 113.156L126.178 113.754L126.523 114.116L126.868 114.478L127.496 113.879L127.15 113.517ZM126.523 114.116L126.868 113.754L126.241 113.156L125.896 113.517L125.55 113.879L126.178 114.478L126.523 114.116ZM125.896 113.517L126.24 113.154L122.989 110.075L122.645 110.438L122.301 110.801L125.552 113.88L125.896 113.517ZM122.645 110.438L122.991 110.076L122.335 109.449L121.989 109.811L121.644 110.172L122.3 110.799L122.645 110.438ZM121.989 109.811L122.351 110.156L123.605 108.844L123.244 108.499L122.883 108.153L121.628 109.465L121.989 109.811ZM123.244 108.499L122.898 108.86L123.554 109.487L123.9 109.126L124.245 108.765L123.59 108.138L123.244 108.499ZM123.9 109.126L123.558 109.491L126.182 111.944L126.523 111.578L126.864 111.213L124.241 108.761L123.9 109.126ZM126.523 111.578L126.867 111.941L133.169 105.953L132.825 105.59L132.48 105.228L126.179 111.216L126.523 111.578ZM132.825 105.59L133.17 105.952L133.826 105.324L133.48 104.963L133.135 104.602L132.479 105.229L132.825 105.59ZM133.48 104.963L133.115 105.305L134.37 106.645L134.735 106.303L135.1 105.962L133.845 104.621L133.48 104.963Z" fill="#0AB535" mask="url(#path-58-outside-4_4879_12293)"/>
<path d="M183.231 297.157C184.843 299.215 187.445 300.237 190.027 299.827L239.877 291.911C243.018 291.413 245.969 293.555 246.467 296.696L260.466 384.855C260.965 387.997 258.823 390.948 255.682 391.446L139.084 409.961C135.943 410.46 132.992 408.318 132.493 405.177L116.462 304.22C115.963 301.078 118.105 298.128 121.246 297.629L173.355 289.354C175.42 289.026 177.502 289.844 178.791 291.49L183.231 297.157Z" fill="#F3F3F3"/>
<path d="M121.339 316.566C121.09 314.995 122.161 313.52 123.731 313.27L240.329 294.755C241.9 294.506 243.375 295.577 243.625 297.148L257.624 385.307C257.873 386.878 256.802 388.353 255.231 388.603L138.633 407.117C137.063 407.367 135.587 406.296 135.338 404.725L121.339 316.566Z" fill="#EBEBEB"/>
<path d="M13.6956 313.988C15.9378 315.333 18.7326 315.356 20.9967 314.049L64.7088 288.811C67.4633 287.221 70.9854 288.165 72.5757 290.919L117.208 368.224C118.798 370.979 117.854 374.501 115.1 376.091L12.8578 435.12C10.1034 436.711 6.58123 435.767 4.99093 433.013L-46.1199 344.486C-47.7102 341.731 -46.7664 338.209 -44.012 336.619L1.68068 310.238C3.49195 309.193 5.72779 309.211 7.52155 310.287L13.6956 313.988Z" fill="#F3F3F3"/>
<path d="M-37.1468 354.268C-37.942 352.891 -37.4701 351.13 -36.0928 350.335L66.1491 291.305C67.5264 290.51 69.2874 290.982 70.0826 292.359L114.715 369.664C115.51 371.041 115.038 372.802 113.661 373.598L11.4186 432.627C10.0414 433.422 8.28034 432.95 7.4852 431.573L-37.1468 354.268Z" fill="#EBEBEB"/>
<path d="M360.215 270.423C360.678 272.996 362.5 275.116 364.974 275.96L412.741 292.269C415.751 293.297 417.358 296.57 416.33 299.58L387.488 384.056C386.461 387.066 383.187 388.673 380.177 387.645L268.451 349.5C265.441 348.472 263.834 345.199 264.862 342.189L297.89 245.45C298.918 242.44 302.191 240.833 305.201 241.861L355.133 258.908C357.112 259.584 358.569 261.28 358.94 263.338L360.215 270.423Z" fill="#F3F3F3"/>
<path d="M296.428 258.643C296.942 257.138 298.578 256.335 300.083 256.848L411.81 294.994C413.315 295.508 414.118 297.145 413.604 298.65L384.763 383.126C384.249 384.631 382.612 385.434 381.107 384.92L269.381 346.774C267.876 346.261 267.072 344.624 267.586 343.119L296.428 258.643Z" fill="#EBEBEB"/>
<path d="M418.681 -37.0117C416.439 -35.6674 413.644 -35.6443 411.38 -36.9515L367.668 -62.1887C364.914 -63.779 361.392 -62.8352 359.801 -60.0808L315.169 17.2241C313.579 19.9786 314.523 23.5007 317.277 25.091L419.519 84.1205C422.274 85.7107 425.796 84.767 427.386 82.0125L478.497 -6.51405C480.087 -9.26853 479.144 -12.7907 476.389 -14.3809L430.696 -40.7616C428.885 -41.8074 426.649 -41.7889 424.856 -40.7134L418.681 -37.0117Z" fill="#F3F3F3"/>
<path d="M469.524 3.26812C470.319 1.89088 469.847 0.12982 468.47 -0.665328L366.228 -59.6947C364.851 -60.4899 363.09 -60.018 362.295 -58.6408L317.663 18.6641C316.867 20.0413 317.339 21.8024 318.716 22.5976L420.958 81.627C422.336 82.4221 424.097 81.9503 424.892 80.573L469.524 3.26812Z" fill="#EBEBEB"/>
<path d="M72.162 -80.5769C71.6989 -78.0039 69.8772 -75.8842 67.4031 -75.0395L19.636 -58.7308C16.626 -57.7031 15.019 -54.4299 16.0467 -51.4199L44.8886 33.0561C45.9163 36.0661 49.1895 37.6731 52.1995 36.6454L163.926 -1.50038C166.936 -2.52805 168.543 -5.80122 167.515 -8.81122L134.487 -105.55C133.459 -108.56 130.186 -110.167 127.176 -109.139L77.2443 -92.0916C75.2651 -91.4158 73.8077 -89.7201 73.4372 -87.6617L72.162 -80.5769Z" fill="#F3F3F3"/>
<path d="M135.949 -92.357C135.435 -93.862 133.799 -94.6655 132.294 -94.1516L20.5671 -56.0059C19.0621 -55.492 18.2586 -53.8554 18.7725 -52.3504L47.6144 32.1256C48.1282 33.6306 49.7648 34.4341 51.2698 33.9203L162.996 -4.22551C164.501 -4.73935 165.305 -6.37594 164.791 -7.88094L135.949 -92.357Z" fill="#EBEBEB"/>
<mask id="mask0_4879_12293" style="mask-type:alpha" maskUnits="userSpaceOnUse" x="297" y="115" width="80" height="65">
<path d="M375.74 136.825C365.799 158.802 329.258 173.791 308.34 179.672C306.132 180.293 303.897 178.862 303.464 176.61L298.02 148.302C297.606 146.151 299.009 144.073 301.14 143.566C326.698 137.492 342.059 125.278 348.727 117.349C350.293 115.487 353.123 115.01 355.011 116.544L374.603 132.457C375.909 133.518 376.434 135.292 375.74 136.825Z" fill="url(#paint0_linear_4879_12293)"/>
</mask>
<g mask="url(#mask0_4879_12293)">
<path d="M375.74 136.825C365.799 158.802 329.258 173.791 308.34 179.672C306.132 180.293 303.897 178.862 303.464 176.61L298.02 148.302C297.606 146.151 299.009 144.073 301.14 143.566C326.698 137.492 342.059 125.278 348.727 117.349C350.293 115.487 353.123 115.01 355.011 116.544L374.603 132.457C375.909 133.518 376.434 135.292 375.74 136.825Z" fill="#F3F3F3"/>
<path d="M349.11 117.671C350.528 115.985 353.052 115.596 354.696 116.932L374.288 132.845C375.439 133.78 375.874 135.317 375.285 136.619C370.383 147.456 358.882 156.631 345.913 163.847C332.963 171.053 318.636 176.257 308.204 179.19C306.287 179.729 304.334 178.49 303.955 176.515L298.511 148.208C298.15 146.331 299.374 144.5 301.255 144.053C326.914 137.954 342.37 125.685 349.11 117.671Z" stroke="#033F36" stroke-opacity="0.1"/>
<g filter="url(#filter1_i_4879_12293)">
<ellipse cx="337.245" cy="148.454" rx="14.5741" ry="13.1861" transform="rotate(-25.8849 337.245 148.454)" fill="#E6E6E6"/>
</g>
</g>
<mask id="mask1_4879_12293" style="mask-type:alpha" maskUnits="userSpaceOnUse" x="306" y="132" width="79" height="65">
<path d="M384.05 153.557C374.109 175.535 337.568 190.523 316.65 196.405C314.442 197.026 312.207 195.595 311.774 193.343L306.33 165.035C305.917 162.884 307.319 160.805 309.45 160.299C335.008 154.224 350.369 142.011 357.038 134.081C358.603 132.22 361.433 131.743 363.321 133.276L382.913 149.19C384.219 150.251 384.744 152.024 384.05 153.557Z" fill="url(#paint1_linear_4879_12293)"/>
</mask>
<g mask="url(#mask1_4879_12293)">
<path d="M384.05 153.557C374.109 175.535 337.568 190.523 316.65 196.405C314.442 197.026 312.207 195.595 311.774 193.343L306.33 165.035C305.917 162.884 307.319 160.805 309.45 160.299C335.008 154.224 350.369 142.011 357.038 134.081C358.603 132.22 361.433 131.743 363.321 133.276L382.913 149.19C384.219 150.251 384.744 152.024 384.05 153.557Z" fill="#F3F3F3"/>
<path d="M357.42 134.403C358.838 132.718 361.362 132.329 363.006 133.664L382.598 149.578C383.749 150.513 384.184 152.05 383.595 153.351C378.693 164.188 367.192 173.364 354.223 180.58C341.273 187.786 326.946 192.99 316.514 195.923C314.598 196.462 312.644 195.223 312.265 193.248L306.821 164.94C306.46 163.063 307.684 161.233 309.566 160.786C335.224 154.687 350.68 142.417 357.42 134.403Z" stroke="#033F36" stroke-opacity="0.1"/>
<g filter="url(#filter2_i_4879_12293)">
<ellipse cx="345.555" cy="165.187" rx="14.5741" ry="13.1861" transform="rotate(-25.8849 345.555 165.187)" fill="#E6E6E6"/>
</g>
</g>
<path d="M384.46 181.572C371.39 201.846 333.04 211.289 311.484 214.025C309.208 214.314 307.208 212.57 307.112 210.278L305.897 181.477C305.805 179.289 307.498 177.439 309.681 177.252C335.854 175.008 352.846 165.191 360.61 158.33C362.433 156.719 365.303 156.664 366.944 158.459L383.979 177.085C385.114 178.326 385.372 180.158 384.46 181.572Z" fill="#F3F3F3"/>
<path d="M360.941 158.705C362.592 157.246 365.146 157.233 366.575 158.796L383.61 177.422C384.61 178.517 384.814 180.1 384.04 181.301C377.595 191.298 364.868 198.68 350.978 203.907C337.107 209.127 322.17 212.164 311.42 213.529C309.445 213.779 307.696 212.266 307.611 210.257L306.397 181.456C306.316 179.546 307.796 177.916 309.723 177.751C336 175.498 353.095 165.638 360.941 158.705Z" stroke="#033F36" stroke-opacity="0.1"/>
<g filter="url(#filter3_i_4879_12293)">
<ellipse cx="313.561" cy="185.205" rx="4.5" ry="4" transform="rotate(-2.41506 313.561 185.205)" fill="#E6E6E6"/>
</g>
<g filter="url(#filter4_i_4879_12293)">
<ellipse cx="344.672" cy="187.405" rx="14.5741" ry="13.1861" transform="rotate(-17.4151 344.672 187.405)" fill="#E6E6E6"/>
</g>
<g filter="url(#filter5_f_4879_12293)">
<mask id="mask2_4879_12293" style="mask-type:alpha" maskUnits="userSpaceOnUse" x="-37" y="178" width="79" height="65">
<path d="M-36.4076 199.825C-26.4662 221.802 10.075 236.791 30.993 242.672C33.201 243.293 35.4359 241.862 35.869 239.61L41.3125 211.302C41.7262 209.151 40.3235 207.073 38.1925 206.566C12.6349 200.492 -2.72598 188.278 -9.39483 180.349C-10.9604 178.487 -13.7907 178.01 -15.6787 179.544L-35.2708 195.457C-36.5766 196.518 -37.101 198.292 -36.4076 199.825Z" fill="url(#paint2_linear_4879_12293)"/>
</mask>
<g mask="url(#mask2_4879_12293)">
<path d="M-36.4076 199.825C-26.4662 221.802 10.075 236.791 30.993 242.672C33.201 243.293 35.4359 241.862 35.869 239.61L41.3125 211.302C41.7262 209.151 40.3235 207.073 38.1925 206.566C12.6349 200.492 -2.72598 188.278 -9.39483 180.349C-10.9604 178.487 -13.7907 178.01 -15.6787 179.544L-35.2708 195.457C-36.5766 196.518 -37.101 198.292 -36.4076 199.825Z" fill="#F3F3F3"/>
<path d="M-9.77741 180.671C-11.1951 178.985 -13.719 178.596 -15.3634 179.932L-34.9553 195.845C-36.1064 196.78 -36.5411 198.317 -35.9524 199.619C-31.0502 210.456 -19.5493 219.631 -6.58037 226.847C6.37014 234.053 20.6968 239.257 31.1285 242.19C33.0452 242.729 34.9983 241.49 35.3781 239.515L40.8215 211.208C41.1824 209.331 39.9585 207.5 38.0772 207.053C12.4183 200.954 -3.03754 188.685 -9.77741 180.671Z" stroke="#033F36" stroke-opacity="0.1"/>
<g filter="url(#filter6_i_4879_12293)">
<ellipse cx="14.5741" cy="13.1861" rx="14.5741" ry="13.1861" transform="matrix(-0.899673 -0.436565 -0.436565 0.899673 20.9562 205.954)" fill="#E6E6E6"/>
</g>
</g>
<mask id="mask3_4879_12293" style="mask-type:alpha" maskUnits="userSpaceOnUse" x="-46" y="195" width="80" height="65">
<path d="M-44.7177 216.557C-34.7763 238.535 1.76495 253.523 22.6829 259.404C24.891 260.025 27.1258 258.595 27.559 256.342L33.0025 228.034C33.4161 225.883 32.0134 223.805 29.8824 223.299C4.32483 217.224 -11.036 205.011 -17.7049 197.081C-19.2705 195.22 -22.1007 194.743 -23.9887 196.276L-43.5808 212.19C-44.8867 213.25 -45.4111 215.024 -44.7177 216.557Z" fill="url(#paint3_linear_4879_12293)"/>
</mask>
<g mask="url(#mask3_4879_12293)">
<path d="M-44.7177 216.557C-34.7763 238.535 1.76495 253.523 22.6829 259.404C24.891 260.025 27.1258 258.595 27.559 256.342L33.0025 228.034C33.4161 225.883 32.0134 223.805 29.8824 223.299C4.32483 217.224 -11.036 205.011 -17.7049 197.081C-19.2705 195.22 -22.1007 194.743 -23.9887 196.276L-43.5808 212.19C-44.8867 213.25 -45.4111 215.024 -44.7177 216.557Z" fill="#F3F3F3"/>
<path d="M-18.0875 197.403C-19.5051 195.717 -22.0291 195.329 -23.6734 196.664L-43.2654 212.578C-44.4164 213.513 -44.8511 215.049 -44.2624 216.351C-39.3603 227.188 -27.8593 236.364 -14.8904 243.58C-1.93992 250.786 12.3868 255.99 22.8184 258.923C24.7351 259.462 26.6883 258.222 27.068 256.248L32.5115 227.94C32.8724 226.063 31.6485 224.233 29.7671 223.785C4.1082 217.687 -11.3476 205.417 -18.0875 197.403Z" stroke="#033F36" stroke-opacity="0.1"/>
<g filter="url(#filter7_i_4879_12293)">
<ellipse cx="14.5741" cy="13.1861" rx="14.5741" ry="13.1861" transform="matrix(-0.899673 -0.436565 -0.436565 0.899673 12.6461 222.686)" fill="#E6E6E6"/>
</g>
</g>
<path d="M-45.1275 244.572C-32.0575 264.846 6.29287 274.289 27.849 277.025C30.1244 277.314 32.1242 275.57 32.2208 273.278L33.4355 244.477C33.5278 242.289 31.8343 240.44 29.652 240.253C3.47839 238.009 -13.5138 228.191 -21.2779 221.33C-23.1005 219.72 -25.9702 219.665 -27.6117 221.46L-44.6463 240.085C-45.7817 241.327 -46.0391 243.158 -45.1275 244.572Z" fill="#F3F3F3"/>
<path d="M-21.6089 221.705C-23.2593 220.247 -25.813 220.234 -27.2427 221.797L-44.2771 240.423C-45.2779 241.517 -45.4815 243.101 -44.7075 244.301C-38.2627 254.298 -25.5357 261.68 -11.6454 266.907C2.22524 272.127 17.1622 275.164 27.912 276.529C29.8872 276.78 31.6365 275.266 31.7213 273.257L32.936 244.456C33.0165 242.547 31.5363 240.917 29.6096 240.751C3.33231 238.498 -13.7621 228.639 -21.6089 221.705Z" stroke="#033F36" stroke-opacity="0.1"/>
<g filter="url(#filter8_i_4879_12293)">
<ellipse cx="4.5" cy="4" rx="4.5" ry="4" transform="matrix(-0.999112 -0.0421383 -0.0421383 0.999112 30.4362 244.399)" fill="#E6E6E6"/>
</g>
<g filter="url(#filter9_i_4879_12293)">
<ellipse cx="14.5741" cy="13.1861" rx="14.5741" ry="13.1861" transform="matrix(-0.954162 -0.299292 -0.299292 0.954162 12.5135 242.186)" fill="#E6E6E6"/>
</g>
</g>
</g>
<defs>
<filter id="filter0_f_4879_12293" x="59.0006" y="35" width="231.144" height="262.954" filterUnits="userSpaceOnUse" color-interpolation-filters="sRGB">
<feFlood flood-opacity="0" result="BackgroundImageFix"/>
<feBlend mode="normal" in="SourceGraphic" in2="BackgroundImageFix" result="shape"/>
<feGaussianBlur stdDeviation="22" result="effect1_foregroundBlur_4879_12293"/>
</filter>
<filter id="filter1_i_4879_12293" x="322.921" y="134.99" width="28.6472" height="27.9285" filterUnits="userSpaceOnUse" color-interpolation-filters="sRGB">
<feFlood flood-opacity="0" result="BackgroundImageFix"/>
<feBlend mode="normal" in="SourceGraphic" in2="BackgroundImageFix" result="shape"/>
<feColorMatrix in="SourceAlpha" type="matrix" values="0 0 0 0 0 0 0 0 0 0 0 0 0 0 0 0 0 0 127 0" result="hardAlpha"/>
<feOffset dy="1"/>
<feGaussianBlur stdDeviation="0.5"/>
<feComposite in2="hardAlpha" operator="arithmetic" k2="-1" k3="1"/>
<feColorMatrix type="matrix" values="0 0 0 0 0 0 0 0 0 0 0 0 0 0 0 0 0 0 0.25 0"/>
<feBlend mode="normal" in2="shape" result="effect1_innerShadow_4879_12293"/>
</filter>
<filter id="filter2_i_4879_12293" x="331.231" y="151.723" width="28.6472" height="27.9285" filterUnits="userSpaceOnUse" color-interpolation-filters="sRGB">
<feFlood flood-opacity="0" result="BackgroundImageFix"/>
<feBlend mode="normal" in="SourceGraphic" in2="BackgroundImageFix" result="shape"/>
<feColorMatrix in="SourceAlpha" type="matrix" values="0 0 0 0 0 0 0 0 0 0 0 0 0 0 0 0 0 0 127 0" result="hardAlpha"/>
<feOffset dy="1"/>
<feGaussianBlur stdDeviation="0.5"/>
<feComposite in2="hardAlpha" operator="arithmetic" k2="-1" k3="1"/>
<feColorMatrix type="matrix" values="0 0 0 0 0 0 0 0 0 0 0 0 0 0 0 0 0 0 0.25 0"/>
<feBlend mode="normal" in2="shape" result="effect1_innerShadow_4879_12293"/>
</filter>
<filter id="filter3_i_4879_12293" x="309.062" y="181.204" width="8.99854" height="9.00195" filterUnits="userSpaceOnUse" color-interpolation-filters="sRGB">
<feFlood flood-opacity="0" result="BackgroundImageFix"/>
<feBlend mode="normal" in="SourceGraphic" in2="BackgroundImageFix" result="shape"/>
<feColorMatrix in="SourceAlpha" type="matrix" values="0 0 0 0 0 0 0 0 0 0 0 0 0 0 0 0 0 0 127 0" result="hardAlpha"/>
<feOffset dy="1"/>
<feGaussianBlur stdDeviation="0.5"/>
<feComposite in2="hardAlpha" operator="arithmetic" k2="-1" k3="1"/>
<feColorMatrix type="matrix" values="0 0 0 0 0 0 0 0 0 0 0 0 0 0 0 0 0 0 0.25 0"/>
<feBlend mode="normal" in2="shape" result="effect1_innerShadow_4879_12293"/>
</filter>
<filter id="filter4_i_4879_12293" x="330.213" y="174.085" width="28.918" height="27.6399" filterUnits="userSpaceOnUse" color-interpolation-filters="sRGB">
<feFlood flood-opacity="0" result="BackgroundImageFix"/>
<feBlend mode="normal" in="SourceGraphic" in2="BackgroundImageFix" result="shape"/>
<feColorMatrix in="SourceAlpha" type="matrix" values="0 0 0 0 0 0 0 0 0 0 0 0 0 0 0 0 0 0 127 0" result="hardAlpha"/>
<feOffset dy="1"/>
<feGaussianBlur stdDeviation="0.5"/>
<feComposite in2="hardAlpha" operator="arithmetic" k2="-1" k3="1"/>
<feColorMatrix type="matrix" values="0 0 0 0 0 0 0 0 0 0 0 0 0 0 0 0 0 0 0.25 0"/>
<feBlend mode="normal" in2="shape" result="effect1_innerShadow_4879_12293"/>
</filter>
<filter id="filter5_f_4879_12293" x="-48.6793" y="175.628" width="93.0642" height="104.428" filterUnits="userSpaceOnUse" color-interpolation-filters="sRGB">
<feFlood flood-opacity="0" result="BackgroundImageFix"/>
<feBlend mode="normal" in="SourceGraphic" in2="BackgroundImageFix" result="shape"/>
<feGaussianBlur stdDeviation="1.5" result="effect1_foregroundBlur_4879_12293"/>
</filter>
<filter id="filter6_i_4879_12293" x="-12.2358" y="197.99" width="28.6471" height="27.9285" filterUnits="userSpaceOnUse" color-interpolation-filters="sRGB">
<feFlood flood-opacity="0" result="BackgroundImageFix"/>
<feBlend mode="normal" in="SourceGraphic" in2="BackgroundImageFix" result="shape"/>
<feColorMatrix in="SourceAlpha" type="matrix" values="0 0 0 0 0 0 0 0 0 0 0 0 0 0 0 0 0 0 127 0" result="hardAlpha"/>
<feOffset dy="1"/>
<feGaussianBlur stdDeviation="0.5"/>
<feComposite in2="hardAlpha" operator="arithmetic" k2="-1" k3="1"/>
<feColorMatrix type="matrix" values="0 0 0 0 0 0 0 0 0 0 0 0 0 0 0 0 0 0 0.25 0"/>
<feBlend mode="normal" in2="shape" result="effect1_innerShadow_4879_12293"/>
</filter>
<filter id="filter7_i_4879_12293" x="-20.5459" y="214.723" width="28.6471" height="27.9285" filterUnits="userSpaceOnUse" color-interpolation-filters="sRGB">
<feFlood flood-opacity="0" result="BackgroundImageFix"/>
<feBlend mode="normal" in="SourceGraphic" in2="BackgroundImageFix" result="shape"/>
<feColorMatrix in="SourceAlpha" type="matrix" values="0 0 0 0 0 0 0 0 0 0 0 0 0 0 0 0 0 0 127 0" result="hardAlpha"/>
<feOffset dy="1"/>
<feGaussianBlur stdDeviation="0.5"/>
<feComposite in2="hardAlpha" operator="arithmetic" k2="-1" k3="1"/>
<feColorMatrix type="matrix" values="0 0 0 0 0 0 0 0 0 0 0 0 0 0 0 0 0 0 0.25 0"/>
<feBlend mode="normal" in2="shape" result="effect1_innerShadow_4879_12293"/>
</filter>
<filter id="filter8_i_4879_12293" x="21.2723" y="244.205" width="8.99854" height="9.00195" filterUnits="userSpaceOnUse" color-interpolation-filters="sRGB">
<feFlood flood-opacity="0" result="BackgroundImageFix"/>
<feBlend mode="normal" in="SourceGraphic" in2="BackgroundImageFix" result="shape"/>
<feColorMatrix in="SourceAlpha" type="matrix" values="0 0 0 0 0 0 0 0 0 0 0 0 0 0 0 0 0 0 127 0" result="hardAlpha"/>
<feOffset dy="1"/>
<feGaussianBlur stdDeviation="0.5"/>
<feComposite in2="hardAlpha" operator="arithmetic" k2="-1" k3="1"/>
<feColorMatrix type="matrix" values="0 0 0 0 0 0 0 0 0 0 0 0 0 0 0 0 0 0 0.25 0"/>
<feBlend mode="normal" in2="shape" result="effect1_innerShadow_4879_12293"/>
</filter>
<filter id="filter9_i_4879_12293" x="-19.7979" y="237.085" width="28.9177" height="27.6399" filterUnits="userSpaceOnUse" color-interpolation-filters="sRGB">
<feFlood flood-opacity="0" result="BackgroundImageFix"/>
<feBlend mode="normal" in="SourceGraphic" in2="BackgroundImageFix" result="shape"/>
<feColorMatrix in="SourceAlpha" type="matrix" values="0 0 0 0 0 0 0 0 0 0 0 0 0 0 0 0 0 0 127 0" result="hardAlpha"/>
<feOffset dy="1"/>
<feGaussianBlur stdDeviation="0.5"/>
<feComposite in2="hardAlpha" operator="arithmetic" k2="-1" k3="1"/>
<feColorMatrix type="matrix" values="0 0 0 0 0 0 0 0 0 0 0 0 0 0 0 0 0 0 0.25 0"/>
<feBlend mode="normal" in2="shape" result="effect1_innerShadow_4879_12293"/>
</filter>
<linearGradient id="paint0_linear_4879_12293" x1="342.881" y1="130.05" x2="315.365" y2="151.125" gradientUnits="userSpaceOnUse">
<stop stop-color="#D9D9D9"/>
<stop offset="1" stop-color="#737373" stop-opacity="0"/>
</linearGradient>
<linearGradient id="paint1_linear_4879_12293" x1="337.914" y1="165.12" x2="315.177" y2="176.62" gradientUnits="userSpaceOnUse">
<stop stop-color="#D9D9D9"/>
<stop offset="1" stop-color="#737373" stop-opacity="0"/>
</linearGradient>
<linearGradient id="paint2_linear_4879_12293" x1="-3.54796" y1="193.05" x2="23.9673" y2="214.125" gradientUnits="userSpaceOnUse">
<stop stop-color="#D9D9D9"/>
<stop offset="1" stop-color="#737373" stop-opacity="0"/>
</linearGradient>
<linearGradient id="paint3_linear_4879_12293" x1="1.41815" y1="228.12" x2="24.1555" y2="239.62" gradientUnits="userSpaceOnUse">
<stop stop-color="#D9D9D9"/>
<stop offset="1" stop-color="#737373" stop-opacity="0"/>
</linearGradient>
<clipPath id="clip0_4879_12293">
<rect width="350" height="350" rx="8" fill="white"/>
</clipPath>
</defs>
</svg>
